<svg xmlns="http://www.w3.org/2000/svg" fillRule="evenodd" strokeLinejoin="round" strokeMiterlimit="2" clipRule="evenodd" viewBox="0 0 280 300">
    <g transform="matrix(1.39303 0 0 .38238 140 265.308)">
        <g transform="translate(-100.5 -90.725)">
            <clipPath id="_clip1">
                <path d="M0 0H201V181.45H0z"></path>
            </clipPath>
            <g clipPath="url(#_clip1)">
                <g transform="matrix(1.25 0 0 -1.25 0 181.45)">
                    <g>
                        <path fill="#fff" d="M154.64 54.398l6.16-1.636V0H0v126.2a113.145 113.145 0 0022.48-3.199c7.415-1.813 12.989-3.973 16.719-6.481 15.735-10.64 24.629-16.625 26.68-17.961 13.016-8.453 23.32-14.371 30.922-17.757 1.625-.719 12.066-5.719 31.32-15 13.145-6.348 21.988-10.149 26.52-11.403l-.001-.001z"></path>
                        <path fill="#CCC" stroke="#CCC" strokeWidth="0.8" d="M134.04 36.32c-1.199.266-1.851.426-1.957.481-1.016.586-1.719.945-2.121 1.082-.238.078-.453.078-.641 0a3.993 3.993 0 00-.64-.403c-.239-.105-.414 0-.52.321-.078.425-.144.691-.199.8-.082.266-.438.664-1.082 1.2-.156.105-.586.531-1.277 1.281-.696.746-1.2 1.25-1.52 1.519-.242.184-.574.454-1 .797a3.03 3.03 0 00-.922 1.082c-.105.243-.238.414-.398.52-.293.187-.625.414-1 .68-.348.269-.52.347-.52.242.082-.293-.015-.508-.281-.641s-.387-.16-.359-.082c.054.242-.028.469-.239.684a1.442 1.442 0 01-.761.398 2.218 2.218 0 00-.84.399c-.321.269-.625.425-.922.48-.133.027-.559.039-1.278.039-.402 0-.789.094-1.16.281-.293.133-.574.176-.84.121-.347-.082-.75.094-1.199.52-.402.348-.629.641-.683.879-.051.16-.293.387-.719.683a6.838 6.838 0 01-1.399.797l-.199-3.199c0-.32-.203-.453-.601-.398l-.28 1.117c-.48.723-.812 1.187-1 1.402-.105.106-.214.293-.32.559a9.761 9.761 0 01-.48 1.039c-.239.402-.785.961-1.641 1.683-.773.614-1.332 1.012-1.68 1.2-.211.132-.347.09-.398-.121-.027-.133-.055-.454-.082-.961-.024-.266-.156-.278-.399-.039-.292.32-.535.398-.718.238-.215-.238-.403-1.172-.563-2.797-.16-1.387-.238-2.496-.238-3.32 0-1.094-.199-.559-.602 1.601-.078.531-.293.719-.636.559-.297-.133-.485-.414-.563-.84-.027-.27 0-1.402.082-3.402.051-1.946-.043-3.118-.281-3.52-.399-.664-.828 1.574-1.281 6.719 0 .187-.227.789-.68 1.801-.586 1.254-1 2.148-1.238 2.683-.934 2.211-1.535 4.012-1.801 5.399-.082.398-.481.691-1.199.879-1.071.293-1.895.64-2.485 1.039a12.33 12.33 0 00-2.117 1.761l-1.281 1.321c-.32.265-.531.613-.641 1.039-.183.613-.304.972-.359 1.082-.559.933-1.094 1.398-1.602 1.398-.371 0-.664.039-.879.121-.32.106-.625.36-.918.758a6.187 6.187 0 01-.921.961c-.348.266-.614.481-.797.641-.27.293-.453.453-.563.48-.187.078-.558.121-1.121.121-.531 0-.879.024-1.039.078-.293.188-.68.399-1.16.641-.504.238-1.867.52-4.078.84-2.242.347-3.547.597-3.922.758-.504.187-.852.523-1.039 1-.133.562-.254.961-.36 1.203-.16.32-.546.625-1.16.918a7.497 7.497 0 01-1.84.562c-.507.078-1.335.637-2.48 1.68l-1.922 1.918c-.156.16-.199-.094-.117-.758.051-.773-.039-1.187-.281-1.242-.266-.027-.918.535-1.961 1.68-1.094 1.226-1.746 1.867-1.957 1.921l-.242.04c.16-.161.242-.305.242-.442 0-.211-.137-.226-.403-.039-.293.16-.586.441-.879.84-.32.426-.988.855-2 1.281-1.066.426-1.972.598-2.718.52-.668-.082-1.574.215-2.723.879-1.144.746-1.84 1.187-2.078 1.32-.266.16-.469-.32-.602-1.442a93.583 93.583 0 01-.281-2.636c-.078-.453-.199-.254-.359.597-.211 1.067-.36 1.629-.438 1.68-.136.082-.187-.531-.16-1.84 0-.746.012-1.801.039-3.16 0-.641-.187-.16-.558 1.442a69.081 69.081 0 00-.641 3.078c-.055.375-.309.906-.762 1.601-.504.746-.945 1.172-1.32 1.281-.32.079-.746.625-1.277 1.641-.508 1.117-.856 1.813-1.043 2.078-.481.801-1.079 1.399-1.797 1.801-.297.16-.442.148-.442-.039-.027-.137-.015-.43.039-.883 0-.266-.132-.16-.398.32a42.258 42.258 0 01-.68 1.2c-.187.214-.347-.133-.48-1.039-.133-.879-.176-1.598-.121-2.161-.348 1.602-.586 3.028-.719 4.282-.082.8-.32 1.265-.723 1.398h-.558c-.801 1.414-1.442 2.281-1.918 2.602-.242.187-.457.226-.641.121-.215-.16-.402-.227-.562-.203-.239.027-.532.136-.879.32l-2.801 1.762c-.371.238-1.199.535-2.481.879-1.41.402-2.226.64-2.437.722-.266.133-1.039.84-2.32 2.117-1.2 1.227-1.922 1.856-2.161 1.883-.265.051-.453-.027-.558-.242-.082-.16-.16-.215-.242-.16-.078.055-.321.121-.719.199a3.97 3.97 0 00-1.199.32c-.215.106-.84.469-1.883 1.082-.399.266-.664.399-.801.399-.105 0-.41-.133-.918-.399-.535-.293-.894-.496-1.082-.601a2.193 2.193 0 00-.918-.199c-.238 0-.48.066-.719.199-.242.105-.562.148-.961.121-1.519-.16-2.519-.402-3-.719-.265-.16-.64-.226-1.121-.203-.586.11-1.039.19-1.359.24v3.2c1.199-.055 2.227.238 3.078.878.961.723 1.563 1.774 1.801 3.161.562 3.359.84 7.468.84 12.32l40.039-17.481 55.922-25.8 59.121-29.078V31.08h-.121c-.403.055-.692.172-.879.359-.215.266-.387.481-.524.641-.156.215-.41.281-.757.199-.375-.16-.625-.254-.758-.281a44.13 44.13 0 00-1.684-.719c-.316-.105-.48-.105-.48 0l.082.203c-.348-.054-.946-.215-1.801-.484-.426-.133-.613-.227-.559-.277.188-.188.172-.469-.043-.84-.183-.375-.265-.563-.238-.563.106-.051.121-.293.039-.719-.078-.558-.172-.867-.277-.918a3 3 0 01-.641-.402c-.293-.238-.453-.281-.48-.117v.32h-.602c-.238 0-.371-.148-.398-.441v-.961c-.082-.399-.149-1.16-.203-2.281-.079-.934-.211-.84-.399.281 0 .613-.105 1.746-.32 3.402-.106 1.012-.504 1.973-1.199 2.879-.586.801-.879 1.211-.879 1.238.027.082-.215.227-.719.442-.641.242-1.109.492-1.402.758-.321.269-.547.347-.68.242-.133-.215-.266-.332-.402-.36-.45-.082-.985.188-1.598.801-.266.266-.375.387-.32.36.16-.082.199-.028.121.16-.082.16-.227.281-.442.359a3.261 3.261 0 00-.961.438c-.371.242-.57.281-.597.121 0-.082.027-.188.078-.321l-1.879-.199-1.402.481-1.399.918c-.187.109-.867.281-2.039.523v-.004l-.002.002z"></path>
                        <path fill="#fff" stroke="#fff" strokeWidth="0.8" d="M135.08 38.281c-.48.371-1.719.707-3.719 1-.64.106-1.441.453-2.402 1.039a15.79 15.79 0 00-2.68 2.16c-.32.321-1.332 1.614-3.039 3.879-1.336 1.762-2.293 2.735-2.883 2.922-.504.184-1.304.051-2.398-.402s-1.828-.614-2.199-.481c-.426.133-1.094.684-2 1.641-1.121 1.176-1.989 1.988-2.602 2.441-1.598 1.227-3.293 2-5.082 2.321-.398.078-1 .437-1.797 1.078-.883.746-1.519 1.215-1.922 1.402-.586.266-1.066.051-1.437-.641-.32-.585-.535-1.441-.641-2.558-.109-1.094-.242-1.817-.402-2.16-.184-.485-.492-.629-.918-.442-.375.16-.961 1.414-1.762 3.758-.824 2.481-1.304 3.895-1.437 4.242a4.009 4.009 0 01-1.082 1.602c-.586.586-1.227.851-1.918.797-.826-.051-1.412-.012-1.76.121-.453.16-.801.519-1.039 1.082-1.199 3.012-2.094 4.879-2.68 5.598-.375.453-1.109.878-2.203 1.281-1.172.347-1.945.586-2.316.719-.403.132-.934.585-1.602 1.359-.773.883-1.305 1.426-1.598 1.641-.457.347-1.296.48-2.523.398a97.814 97.814 0 00-2.359-.277c-1.785-.243-3.024.117-3.719 1.078-.348.535-1.266 1.254-2.762 2.16a473.429 473.429 0 00-2.84 1.762l-5.879 4.48c-.16.133-.304.039-.441-.281-.133-.242-.293-.242-.477 0-.269.398-1.042 1-2.32 1.801-1.336.851-2.254 1.277-2.762 1.277-1.039-.133-1.906-.184-2.601-.16-1.332.027-2.332.414-3 1.16-1.145 1.281-1.824 2.016-2.039 2.203-.586.531-1.106.664-1.559.399-.347-.215-.574-.735-.679-1.559-.133-.883-.348-1.457-.641-1.723-.399-.371-.973.266-1.719 1.922-.722 1.52-1.109 2.707-1.16 3.559-.055.719-.32 1.293-.801 1.719-.508.429-.972.496-1.402.203-.559-.375-.984-.52-1.277-.442-.403.106-.707.614-.922 1.52a9.271 9.271 0 01-1.52 3.199c-.851 1.148-1.785 1.883-2.801 2.203-.558.184-2.05.332-4.48.438-2.156.082-3.625.375-4.399.879a392.296 392.296 0 01-4.078 2.8c-1.867 1.282-3.175 1.973-3.922 2.082-.668.106-1.535.586-2.601 1.438-1.09.883-1.891 1.375-2.399 1.48-.64.1-1.585-.08-2.839-.56-1.895-.72-2.946-1.11-3.161-1.16-1.011-.24-2.171-.19-3.48.16v7.16c1.762.105 3.188.785 4.281 2.039 1.227 1.359 1.598 3 1.121 4.922a23.452 23.452 0 00-.64 3.679l4.718 1.239 30.801-7.399c51.598-29.465 77.531-44.226 77.801-44.281.16-.051 6.184-4.051 18.078-12a8869.74 8869.74 0 0017.801-11.918l6.84-8.281v-9h-.52c-.48 0-.984-.027-1.519-.078-1.039-.11-1.641-.282-1.801-.52-.32-.48-.57-.789-.758-.922-.375-.238-.746-.172-1.121.203-.426.426-.879.543-1.359.356-.426-.156-.746-.504-.961-1.039-.133-.348-.387-1.039-.758-2.078-.375-.883-.746-1.254-1.121-1.121-.321.105-.731 1.132-1.238 3.082-.563 2.078-.989 3.277-1.282 3.597-.347.403-.801.426-1.359.082-.535-.48-.906-.734-1.121-.761-.188-.028-.707.293-1.559.961-.933.718-1.613 1.093-2.043 1.121-.449.05-1.011-.282-1.679-1-.774-.828-1.278-1.293-1.52-1.403-.398-.16-1.09.348-2.078 1.52a275.962 275.962 0 01-1.922 2.281l-.002.002z"></path>
                        <path fill="#CCC" stroke="#CCC" strokeWidth="0.8" d="M133.16 65.48l23.52-10.601.398-15.68-4.117.082c-1.68 0-2.84.266-3.481.801-.375.316-1.121.57-2.242.758-.929.16-1.851.242-2.758.242a54.31 54.31 0 00-3-.203c-1.492-.051-2.867.148-4.121.601-2.293.852-5.16 2.825-8.597 5.918L122.082 53c-.746.531-1.199.84-1.355.918-.856.508-1.645.801-2.364.883l-5.199.879.602.519c-.535.801-1.067 1.469-1.602 2-.32.32-1 .586-2.039.801-1.894.398-3.082.668-3.559.801-1.175.347-2.617 1.25-4.32 2.718-1.84 1.707-3.094 2.868-3.762 3.481l-4.517 3.879 1.117.121c-1.543 1.254-2.879 2.148-4 2.68-.719.347-1.746.535-3.078.558-1.387-.023-2.266-.039-2.641-.039-.453 0-.691.149-.718.441l.121.438c-.59.137-1.617.242-3.082.32-.934.028-1.961.188-3.082.481-1.52.426-2.825.801-3.918 1.121-3.707.984-6.614 2.586-8.719 4.801a53.09 53.09 0 00-2.84 3.277l-1.16 1.602-.281-1.602-1.2 1.402c-.48.559-1.441 1.078-2.882 1.559a555.139 555.139 0 00-4.719 1.559c-1.625.64-3.332 1.601-5.121 2.882-1.438 1.039-2.637 2.078-3.598 3.118-.988 1.042-2.949 2.109-5.883 3.203-.504.16-1.304.679-2.398 1.558-1.199.989-2.039 1.602-2.52 1.84-.425.215-1.507.535-3.238.961a38.75 38.75 0 00-5.363 1.719c-1.84.746-4.184 2.402-7.039 4.961l-3.758 3.64 1.199-1.8c-1.254.535-2.75 1.039-4.48 1.519a47.297 47.297 0 01-6.922 1.281l3.402 13.719 4.52 1.281 44.597-18.882 76.883-44.118h-.006z"></path>
                    </g>
                </g>
            </g>
        </g>
    </g>
</svg>