<svg xmlns="http://www.w3.org/2000/svg" fillRule="evenodd" strokeLinejoin="round" strokeMiterlimit="2" clipRule="evenodd" viewBox="0 0 280 300">
    <g transform="matrix(24.5717 0 0 11.4013 140 235.51)">
        <g transform="translate(-7.5 -7.5)">
            <path fill="#fff" fillRule="nonzero" d="M8.484 1a.502.502 0 00-.375.188l-1.66 2.074-1.605-1.523c-.436-.402-1.084.154-.754.646l1.666 2.4a.5.5 0 00.803.026c.166-.21.441-.678.941-.678.5 0 .793.491.941.678a.5.5 0 00.713.072l1.668-1.4c.441-.375.001-1.074-.527-.838L9 3.227V1.5a.5.5 0 00-.516-.5zM5 6l-2.924 5.924c-.077.077-.076.231-.076.385 0 .538.384.691.691.691h9.618c.384 0 .691-.153.691-.691 0-.154.001-.231-.076-.385L10 6c-.5 0-1 .5-1 1v.5a.499.499 0 11-1 0V7a.5.5 0 00-1 0v2a.499.499 0 11-1 0V7c0-.5-.5-1-1-1z"></path>
        </g>
    </g>
</svg>