<svg xmlns="http://www.w3.org/2000/svg" fillRule="evenodd" strokeLinejoin="round" strokeMiterlimit="2" clipRule="evenodd" viewBox="0 0 280 300">
    <g transform="matrix(2.59379 0 0 1.06441 140 256.755)">
        <g transform="translate(-53.975 -43.717)">
            <g fill="#fff" fillRule="nonzero" transform="translate(-40.31 -17.217)">
                <path d="M109.18 20.294c-9.764 0-18.127 5.089-22.23 12.4-1.638-.915-3.463-1.475-5.392-1.475-5.833 0-10.686 4.692-12.186 11.062a23.714 23.714 0 00-8.697-1.638c-9.541 0-17.288 5.227-17.288 11.663 0 5.809 6.346 10.588 14.592 11.471-.37.627-.661 1.254-.661 1.912 0 6.162 16.889 11.172 37.695 11.172 20.807 0 37.697-5.01 37.697-11.172 0-.414-.28-.799-.43-1.201.92.226 1.83.464 2.83.464 5.57 0 10.07-3.784 10.07-8.44s-4.5-8.413-10.07-8.413c-.68 0-1.28.22-1.93.328.57-1.862.95-3.77.95-5.791 0-12.323-11.17-22.342-24.95-22.342z"></path>
                <path d="M96.661 89.185c1.709-1.551 3.679-3.458 6.799-3.266 3.27-.003 4.84.342 8.03 1.337 3.2.995 6.45 2.654 8.89 2.058 2.55-.621 5.35-2.953 6.47-4.383 1.64.5-.45 2.592-.94 3.473-1.53 2.295-2.92 3.85-5.15 4.502-2.44.829-5.34.477-7.76-.032-2.74-.649-5.41-1.78-8.13-2.511-3.02-.645-7.376.881-8.551 1.434-1.22.573-3.618 3.166-3.166 1.078 1.162-1.097 1.777-2.118 3.508-3.69z"></path>
                <path d="M61.275 88.021c1.708-1.551 3.679-3.458 6.797-3.266 3.271-.003 4.84.342 8.036 1.337 3.196.996 6.448 2.654 8.888 2.058 2.543-.621 5.347-2.952 6.468-4.383 1.642.5-.447 2.592-.937 3.473-1.53 2.295-2.925 3.85-5.158 4.502-2.44.829-5.333.477-7.756-.032-2.738-.649-5.405-1.78-8.129-2.511-3.02-.645-7.376.882-8.551 1.434-1.221.573-3.619 3.166-3.167 1.078 1.163-1.097 1.777-2.118 3.509-3.69z"></path>
                <path d="M76.137 99.66c1.708-1.551 3.679-3.458 6.797-3.266 3.271-.002 4.841.343 8.037 1.338 3.196.995 6.447 2.648 8.888 2.057 2.541-.62 5.351-2.952 6.471-4.383 1.64.501-.45 2.593-.94 3.474-1.53 2.29-2.93 3.85-5.16 4.5-2.439.83-5.332.48-7.755-.03-2.737-.65-5.404-1.78-8.128-2.51-3.021-.65-7.377.88-8.552 1.43-1.22.58-3.618 3.17-3.167 1.08 1.163-1.1 1.777-2.12 3.509-3.69z"></path>
            </g>
        </g>
    </g>
</svg>