<svg xmlns="http://www.w3.org/2000/svg" fillRule="evenodd" strokeLinejoin="round" strokeMiterlimit="2" clipRule="evenodd" viewBox="0 0 351 65">
    <g transform="translate(-86.733 -466.799)">
        <path fill="#fff" fillRule="nonzero" d="M177.609 468.315c.004.005.007.014.01.019l-.003-.019h-.007zm.01.019l3.103 25.342c-.06-.038-.115-.083-.176-.12l.207.372.441 3.604c-.071.238-.131.48-.184.723h-1.403l-2.185-1.67 1.314-2.374c-.893.005-1.809.066-2.647.397a2.382 2.382 0 00-.575.334l-.441-.56 2.615-7.843c-1.003.001-2.071.174-2.869.828-1.416 1.159-1.485 3.037-1.474 4.819l-1.373-1.741c.041.316.2.601.324.89.323.754.678 1.492 1.05 2.221v.05c-.007.29-.06.517-.142.705l-.035.002c-.582.052-1.165.113-1.747.185a20.071 20.071 0 00-.636-1.935c-.535-1.363-1.202-2.713-2.145-3.838l3.476-10.43a12.865 12.865 0 00-1.466 1.792c-1.909 2.761-3.096 5.945-4.128 9.121a66.68 66.68 0 00-1.777 6.668c-.397.122-.791.253-1.183.39l-.227-.173a61.357 61.357 0 00-.542-2.357c-.832-3.294-1.837-6.614-3.541-9.564l.715-2.405c-.568.29-1.08.661-1.547 1.085-.885-1.298-1.95-2.532-3.368-3.255l1.594 5.362c-.07.103-.149.202-.218.306-1.795 2.716-2.881 5.817-3.743 8.952-.753.014-1.515.087-2.229.334a67.17 67.17 0 00-1.959-7.512c-.168-.519-.351-1.034-.53-1.551.034-.077.074-.15.107-.227.124-.29.283-.574.324-.891l-.567.719c-.89-2.513-1.943-4.977-3.46-7.172a13.001 13.001 0 00-1.468-1.791l3.564 10.693-6.357 8.071a6.505 6.505 0 00-.975-.555 2.746 2.746 0 00-.319-.126l.885 1.2-1.099 1.395a24.265 24.265 0 00-1.068-1.604 14.04 14.04 0 00-2.802-2.882l2.673-21.833c-2.121 4.243-3.438 8.846-4.253 13.507a77.602 77.602 0 00-.772 5.706c-.137.344-.264.693-.392 1.041a10.344 10.344 0 00-1.275-.422 14.375 14.375 0 00-1.678-1.448c-3.657-2.663-8.044-4.311-12.517-4.837a12.08 12.08 0 00-1.384-.096l3.179 2.312 11.798 8.58c-.342.183-.67.393-.986.618-.751-.534-1.575-.97-2.458-1.235l1.15 2.327a13.881 13.881 0 00-1.505 1.717h-4.109a18.923 18.923 0 00-.748-1.009l1.743-2.398c.095-.115.193-.226.286-.343l.079-.159 1.259-1.732c-2.162.057-4.177.881-5.9 2.134a10.031 10.031 0 00-.788-.537l.179.324.259.468a13.839 13.839 0 00-1.857 1.748c-.08-.378-.158-.756-.245-1.132-.745-3.204-1.628-6.615-3.939-9.08l1.674 11.716h-.394a13.327 13.327 0 00-1.708-1.421l.533-2.623a20.475 20.475 0 00-1.482 2.013 14.36 14.36 0 00-1.02-.538c-.542-2.567-1.255-5.1-2.187-7.551l.244-.728c-.169 0-.341.014-.512.025a40.274 40.274 0 00-1.369-3.063l.392 3.202c-.5.125-.976.331-1.381.662-1.73 1.416-1.451 3.904-1.471 5.977l-.038-.001.038.03v.232c-.033 1.415-1.094 1.44-1.908 1.8a31.883 31.883 0 00-2.205-.678c-.069-.317-.136-.634-.209-.949l.525-.435c-.209.002-.418.011-.627.022a65.163 65.163 0 00-1.406-5.024c-1.032-3.176-2.219-6.361-4.128-9.122a12.915 12.915 0 00-1.466-1.791l5.37 16.112c-.581.094-1.156.226-1.723.388a47.481 47.481 0 00-3.758-.482c-.123-.012-.246-.017-.368-.026a21.762 21.762 0 00-1.819-3.14l.795-1.436c-.589.003-1.185.035-1.765.148-.04-.048-.076-.1-.116-.148l.034.164a5.307 5.307 0 00-.554.145c-.026.009-.05.023-.076.032l-3.108-3.944c.04.316.199.601.323.89a38.457 38.457 0 001.821 3.645 2.765 2.765 0 00-.876 2.026c.008.844.389 2.28-.962 2.209-.375-.02-.822.017-1.175.174v37.756h354.927v-35.802c-.607-1.277-1.407-2.46-2.489-3.354l2.489-1.811v-4.043a25.827 25.827 0 00-6.019 3.242 14.021 14.021 0 00-2.931 2.872c-.023-.667-.051-1.333-.086-1.999l1.236-.945c-.427.166-.844.353-1.263.535-.186-3.241-.511-6.472-1.072-9.679-.816-4.66-2.131-9.264-4.253-13.507l2.536 20.71-.029.139c-.851.912-1.506 1.953-2.033 3.065.152-3.204-.02-6.43-.251-9.621l-2.471 12.148-3.397-4.311c.04.316.2.601.324.89.718 1.676 1.581 3.279 2.519 4.84a63.895 63.895 0 00-2.322 1.755c.012-.463.012-.926-.019-1.389-.035-.496-.112-1.069-.516-1.413a.658.658 0 00-.398-.145 25.53 25.53 0 01.591 3.221l-.064.051h-.675a75.604 75.604 0 00-.519-3.136c.215-.091.446-.153.667-.138-.21-.82-.462-1.629-.772-2.42a18.466 18.466 0 00-.868-1.882 64.32 64.32 0 00-.883-3.138l3.082-9.248a13.07 13.07 0 00-1.468 1.792c-1.018 1.473-1.826 3.067-2.519 4.715-.9-2.564-1.966-5.081-3.513-7.318a12.983 12.983 0 00-1.466-1.792l3.945 11.835c-.196.56-.392 1.12-.574 1.682a67.843 67.843 0 00-2.246 9.046h-.526a60.98 60.98 0 00-.801-3.854 22.66 22.66 0 00.282-5.523l-1.133 2.296c-.708-2.429-1.585-4.816-2.847-7l.717-2.407a7.135 7.135 0 00-1.549 1.086c-.885-1.299-1.95-2.531-3.367-3.254l1.593 5.359c-.071.103-.149.203-.218.307-2.042 3.091-3.178 6.676-4.094 10.247l-3.259-6.598a65.334 65.334 0 00-.576-1.875c-.168-.518-.351-1.034-.53-1.551.033-.077.074-.15.107-.227.123-.289.283-.574.323-.891l-.567.719c-.889-2.512-1.943-4.977-3.461-7.171a12.865 12.865 0 00-1.466-1.792l3.564 10.693-3.223 4.092a5.308 5.308 0 00-.482-1.512l-.407.735c-.827-4.087-2.07-8.103-3.938-11.839l1.9 15.519-1.509 2.726-.208.265a25.231 25.231 0 00-1.067-1.605 14.05 14.05 0 00-2.803-2.883l2.674-21.832c-2.122 4.243-3.437 8.846-4.253 13.507a77.713 77.713 0 00-.773 5.71c-.137.343-.262.691-.39 1.037a10.403 10.403 0 00-1.279-.422 14.256 14.256 0 00-1.674-1.448c-3.657-2.663-8.046-4.311-12.519-4.837a12.311 12.311 0 00-1.384-.096l3.18 2.313 11.797 8.579a9.349 9.349 0 00-1.196.763c-1.004.752-1.858 1.664-2.603 2.664h-2.616l-.948-2.132c-.261.129-.585.254-.883.234a29.726 29.726 0 001.62-1.852l.145-.294-1.331 1.017.751-1.019c-.11.034-.215.079-.319.126-.414.189-.8.428-1.165.698a30.577 30.577 0 01-.509-4.531v.101c-.047 1.398-.202 2.797-.106 4.195.014.213.041.438.094.655a8.37 8.37 0 00-.611.624 12.75 12.75 0 00-1.396-1.249 9.706 9.706 0 00-.902-.617l.178.322 1.372 2.479c-.062.088-.133.171-.192.261-.039.058-.07.122-.107.181l-1.051.803h-2.042a21.373 21.373 0 00-2.075-3.319l-3.328-16.37c-.375 5.182-.603 10.456.476 15.576.011.054.025.105.038.159-3.156-2.535-6.535-4.828-10.213-6.521-.017-.831-.179-1.65-.57-2.423l-.977 1.765c-.157-.063-.309-.136-.467-.198l.405.309-2.578 4.656-.71 1.283c-3.12-2.372-6.464-4.456-10.09-5.953l.387-.295c-.184.071-.36.156-.542.23-.182-.074-.358-.159-.541-.23l.387.295c-2.271.938-4.432 2.103-6.495 3.43l-2.931-5.292c-1.084 2.145-.471 4.645.436 6.751.026.06.065.117.093.176a65.96 65.96 0 00-2.968 2.282c-.239.053-.477.113-.714.177l-.282-1.189c-.039.433-.071.87-.104 1.305-.134.041-.269.079-.402.123a18.69 18.69 0 00-.605-.773l.188.923c-.66.242-1.301.53-1.918.864l-.687-1.242c.258-.297.511-.598.756-.906l.145-.294-1.1.841-.466-.841a5.294 5.294 0 00-.345.896c-.065-.079-.124-.163-.189-.241l.111.549a5.47 5.47 0 00-.075.373l-1.466 1.121.416-2.043a20.574 20.574 0 00-1.63 2.248l-.068-.029-.899-.394-.482-2.032-4.407-18.573c-.475 5.208-.569 10.597.988 15.63.369 1.193.853 2.404 1.513 3.491-.134.093-.274.177-.403.276-.153.116-.296.244-.442.367a35.561 35.561 0 00-3.088-.776c-.055-.028-.107-.058-.163-.084a2.746 2.746 0 00-.319-.126l.095.129c-.22-.043-.442-.079-.664-.118l-.011-.009v.009c-.236-.043-.471-.088-.707-.126.037-.175.068-.353.083-.536l-.938.41a48.979 48.979 0 00-2.635-.308 23.039 23.039 0 00-1.948-.103l.145.063 2.615 1.146-1.897.831c0-.002-.009-.003-.009-.006a10.243 10.243 0 00-.486-.337c-.266-.566-.691-1.043-1.342-1.299-.838-.331-1.753-.393-2.645-.399l1.353 2.445c-.164-.138-.324-.281-.496-.41a9.3 9.3 0 00-1.427-.881 25.533 25.533 0 00-.551-1.838l4.935-9.993c-1.225.367-2.337 1.051-3.296 1.888-1.365 1.192-2.446 2.658-3.316 4.244-.87-1.586-1.949-3.052-3.315-4.244-.959-.837-2.071-1.521-3.296-1.888l4.934 9.992a23.16 23.16 0 00-.248.773 5.34 5.34 0 00-1.249.311c-1.395.549-1.781 2.091-1.698 3.413.025.408-.047.687-.18.887h-4.465a41.685 41.685 0 00-.202-2.258l5.573-2.441c-.65.002-1.3.046-1.948.103a47.515 47.515 0 00-3.888.504c-.071-.42-.137-.841-.225-1.259-.769-3.649-2.324-7.156-4.73-10.025l2.401 11.805a33.276 33.276 0 00-3.166.927l-2.456-1.878 2.207-10.854c-2.405 2.869-3.96 6.376-4.73 10.025-.373 1.769-.581 3.556-.69 5.351h-1.324l3.128-15.376c-2.406 2.869-3.961 6.376-4.73 10.025a33.713 33.713 0 00-.469 2.934 20.661 20.661 0 00-1.65-2.282l.632 3.106c-.834.06-1.877.18-1.815-.985.041-.78-.152-1.885-1.207-1.765-2.127.243-3.721-2.087-5.684-2.932-1.496-.645-3.191-1.128-4.816-.973 0-1.439-.164-2.876-.576-4.298l-3.921 11.763c-.43-.565-.9-1.095-1.411-1.587l1.15-2.329c-.883.266-1.706.702-2.457 1.235a9.114 9.114 0 00-1.372-.806l.212-.429c-.22.066-.436.146-.649.232a7.36 7.36 0 00-.649-.232l.213.429a8.667 8.667 0 00-.668.352c-.19-.129-.377-.259-.57-.384l.385.489c-.178.11-.349.228-.52.349a9.257 9.257 0 00-.783-.499l1.902-4.281c-.296.162-.55.391-.794.621-.932.885-1.619 1.981-2.178 3.14a7.45 7.45 0 00-.603-.216l.364.738c-.128.29-.258.579-.373.872-.31.791-.564 1.6-.774 2.42.133-.009.267.008.403.048-.151.205-.302.41-.444.621h-.112c.05-.223.097-.447.153-.669a.683.683 0 00-.326.1l-2.539-12.475c-.203 2.81-.354 5.645-.285 8.47l-.008.001a6.596 6.596 0 00-1.422.891l-1.887-13.203c-.222 4.26-.403 8.56-.332 12.844l-.05-.041a9.735 9.735 0 00-.904-.617l.971 1.753c.015.55.049 1.098.073 1.647l-.621.475-3.328-9.986c-.491 1.698-.636 3.417-.558 5.135a13.266 13.266 0 00-1.434-1.732c1.226-1.928 2.334-3.922 3.234-6.021.124-.289.284-.574.324-.891l-4.655 5.91c-.224-.185-.446-.374-.68-.544-3.657-2.663-8.045-4.311-12.517-4.837a12.08 12.08 0 00-1.384-.095l.145.105 11.867 8.631-.619.785.068-.335c-.211.251-.408.512-.605.773a15.102 15.102 0 00-4.601-.773l.902.747-.226-.092.364.278c-.723.379-1.357.904-1.916 1.503a30.212 30.212 0 00-1.387-.502c.91-1.512 1.481-3.211 1.529-5.009l-4.33 3.15c-.172.017-.343.037-.514.06-.099-1.264-.415-2.461-1.424-3.287-.799-.654-1.867-.827-2.87-.828l1.485 4.458a49.071 49.071 0 00-3.112-.375 23.062 23.062 0 00-1.949-.103l1.602.702-1.042.795-.466-.842a5.336 5.336 0 00-.476 1.452 8.169 8.169 0 00-1.454-1.563l.496-1.49 1.589-4.768c-1.002.001-2.071.172-2.869.826-1.801 1.474-1.421 4.121-1.471 6.24-.025 1.087-.658 1.352-1.32 1.579-.57-.212-1.145-.41-1.727-.589a20.872 20.872 0 00-.6-.906l.795-1.436a9.466 9.466 0 00-1.761.154c-.041-.05-.078-.104-.12-.154l.034.169a4.94 4.94 0 00-.798.228 2.414 2.414 0 00-1.203 1.034 43.695 43.695 0 00-1.348-.242c.038-.175.069-.352.084-.536l-.938.41a49.202 49.202 0 00-1.782-.218l11.408-8.297c-.463.002-.924.041-1.383.095-4.472.527-8.861 2.174-12.519 4.837-.045.034-.087.073-.133.107l-.211-.266c.016.123.059.238.101.354a13.948 13.948 0 00-2.688 2.679c-.144-4.049-.485-8.087-1.185-12.089-.814-4.653-2.126-9.25-4.242-13.487v.001zm190.831 22.168c.02-.824-.037-2.932-.042-2.19-.009.728.011 1.459.042 2.19zm-35.006-3.163l5.749 4.395 3.719 2.842-.064.115a47.677 47.677 0 00-2.126-.272 5.257 5.257 0 00-.334-.863l-.433.782-.246-.025a23.824 23.824 0 00-1.751-.097l.015-.006-.106.003c-.036 0-.07-.003-.105-.003l.014.006a23.82 23.82 0 00-1.752.097 48.72 48.72 0 00-3.172.382c-.251-.121-.502-.245-.757-.36v-.002a37.726 37.726 0 00-1.072-.467l.23-.312c-.11.034-.217.081-.321.129-.055.025-.106.054-.16.08-.168-.068-.334-.141-.504-.208l.365.279a6.99 6.99 0 00-1.49 1.056l-1.658-2.994 5.959-4.557zm-186.627.526l.65 1.953c-.153.119-.3.246-.441.379-1.302 1.235-2.141 2.878-2.79 4.535-.055.14-.098.283-.15.424a6.95 6.95 0 00-.634-.44l.28-.505c-.182.109-.35.236-.523.357a6.159 6.159 0 00-.443-.227c1.48-2.085 2.868-4.227 4.051-6.476zm247.394 0l.651 1.953a5.713 5.713 0 00-.441.379 8.209 8.209 0 00-.611.655l-.591-1.194c.346-.589.674-1.189.992-1.793zm-45.65.582l3.262 2.493 4.475 3.419c-.168.205-.329.414-.489.625a15.072 15.072 0 00-4.601-.773l.615.508 2.676 2.215a22 22 0 00-.728 1.321h-.074a13.154 13.154 0 00-1.001-.57c-1.975-.994-4.064-1.728-6.205-2.266-.241-.203-.48-.407-.724-.608.646-.881 1.402-1.748 1.812-2.701.494-1.145.888-2.406.982-3.663zm-190.727.502l2.566 8.635c-.072.036-.146.065-.218.102-.335.168-.669.363-1.001.569h-2.959l.129-.435a6.562 6.562 0 00-.716.435h-.145a23.167 23.167 0 00-.27-.517l2.614-8.789zm247.393 0l.656 2.208-3.297 6.678 2.641-8.886zm-236.952.872l2.14 4.818a41.67 41.67 0 00-2.13.357l.216-.646c-.235.235-.452.486-.664.741-.477.1-.953.204-1.425.322l1.863-5.592zm226.692.31l1.493 4.48-.421.759-1.79-3.626.718-1.613zm-247.395.002l1.732 5.191a2.746 2.746 0 00-.232.315l-1.766-1.349.044-.079c-.027.017-.051.036-.078.053l-.069-.053.037.075c-.272.169-.54.347-.794.542-.498.381-.961.801-1.396 1.248l-.081-.087 2.603-5.856zm245.206.25c0 .606.023 1.211.069 1.815a16.9 16.9 0 00-1.218 2.534 20.37 20.37 0 00-.772 2.42c.174-.011.356.02.531.084l-.492.889c-.025-.278-.049-.556-.077-.833.011-.047.025-.093.038-.14-.017.002-.035-.002-.052 0a77.947 77.947 0 00-.378-3.042c.02-.077.041-.155.059-.231a66.207 66.207 0 002.292-3.495v-.001zm22.685.06l2.603 7.812h-1.238l-1.752-1.45.819-2.455a12.95 12.95 0 00-1.468 1.792 22.488 22.488 0 00-1.289 2.113h-.279l2.604-7.812zm-308.376.276l.492 4.015a15.103 15.103 0 00-1.711-.356l1.219-3.659zm145.695.861l3.718 2.058c-.139.087-.271.182-.405.275a6.041 6.041 0 00-.454-.231 2.59 2.59 0 00-.319-.128l.435.591c-.014.011-.028.017-.041.029-.499.382-.961.802-1.396 1.249-.543-.596-1.156-1.127-1.857-1.517.138-.773.256-1.548.319-2.325v-.001zm-163.778 1.6c.35.547.709 1.09 1.076 1.629l.49 2.405c-.602-1.032-1.36-1.957-2.325-2.663l.759-1.371zm236.217.445c.609.825 1.285 1.627 1.683 2.483-1.323.437-2.62.951-3.868 1.579-.334.168-.67.363-1.001.57h-.074c-.227-.449-.47-.888-.727-1.32l.208-.173 3.082-2.552-.076.002.609-.466.164-.123zm-68.664.047l.552.306 1.478.817c-.224.202-.44.413-.65.629a7.511 7.511 0 00-1.597-1.361l.217-.391zm17.399.238a30.693 30.693 0 001.751 1.976c-.801.304-1.588.639-2.359 1.016l.608-2.992zm-38.324.062c0 .085.007.17.007.255l-.45.343.443-.598zm95.263.064l1.063.813c-.654.115-1.306.246-1.954.394l.891-1.207zm105.429.038l.539 2.269c-.589-.117-1.196-.15-1.794-.152l1.142 2.064h-5.61l.017-.033 5.706-4.148zm-212.439.069l.759.552a21.45 21.45 0 00-.601.873 14.256 14.256 0 00-.854-.457c.234-.321.465-.644.696-.968zm182.889.009h.001l.029.101-.038-.069c0-.011.009-.023.009-.032h-.001zm-68.908.104l1.718.751-.744 1.343a43.35 43.35 0 00-2.193.409 45.553 45.553 0 00-1.939-1.121l.085-.038.94-.411 2.133-.933zm-132.98.014l1.547.678.189.082c-.743.357-1.455.777-2.123 1.258l-.486-.877c.258-.297.51-.599.756-.907l.117-.234zm-57.614.079l.078.155c.466.584.955 1.146 1.463 1.692a4.639 4.639 0 00-.237 1.825c.007.085 0 .159 0 .233h-2.036a9.103 9.103 0 00-.548-.983c-.059-.09-.13-.173-.192-.262l1.472-2.66zm209.101.064l2.241 1.714c-.02.032-.043.063-.064.095a14.518 14.518 0 00-2.324-1.09l.147-.719zm-104.013.029l1.277 1.731a18.89 18.89 0 00-1.519 2.082h-.716c.372-1.256.703-2.529.958-3.813zm-109.708.063l.218.294c-.013.011-.027.017-.041.029-.396.303-.764.636-1.119.982.317-.433.631-.869.942-1.306v.001zm113.413.055l1.044 1.417.145.197a18.363 18.363 0 00-1.296 1.738 9.111 9.111 0 00-.696-1.294c-.059-.09-.13-.172-.192-.26l.995-1.798zm-38.058.13l.669.512.185.142 1.11.918-.963 1.222a12.568 12.568 0 00-.818-.454 26.177 26.177 0 00-1.423-.661l1.24-1.679zm17.648.023c.053 1.185.157 2.366.312 3.542h-.442c-.317-.496-.652-.98-1.01-1.446l-.108-.756c.424-.439.848-.878 1.248-1.34zm74.215.098c.219.339.46.66.719.967a29.763 29.763 0 00-1.055-.36l.336-.607zm-66.049.059l.197.397c-.095-.072-.192-.14-.287-.211l.09-.186zm-91.356.165c-.076.291-.164.581-.237.872-.017.066-.031.133-.047.199-.074-.051-.148-.106-.224-.155l.508-.916zm35.123.017c.109.2.212.402.325.6l-1.682.735a3.29 3.29 0 00-.095-.28l1.452-1.055zm-99.624.009l.758 3.198h-2.528l.967-1.748.803-1.45zm137.245.05l1.28.931-.501.906a13.143 13.143 0 00-.997-.763l.218-1.074zm-132.769.011l1.106.486.188.082c-.205.098-.406.2-.605.308l-.689-.876zm166.885.085l4.591 2.543c.182.171.363.341.547.51h-4.292v-.003a.952.952 0 00-.5-.136c.02.046.035.093.053.139h-.917c.272-.077.575-.15.864-.139a9.204 9.204 0 00-.789-1.499c-.059-.09-.131-.172-.192-.261l.635-1.154zm-116.149.012l.604.817c-.117.371-.222.744-.318 1.121.186-.015.381.022.567.093-.26.328-.51.664-.749 1.01h-.067c.076-.37.156-.738.249-1.103a.662.662 0 00-.398.145 1.252 1.252 0 00-.352.548 8.69 8.69 0 00-.338-.573c-.059-.09-.13-.172-.192-.261l.994-1.797zm57.869.001l.182.768.209.883-.209.159-.766.586c-.062-.03-.125-.056-.186-.086l.77-2.31zm192.292.321c.203.92.463 1.827.769 2.717h-1.663c.341-.89.641-1.798.894-2.717zm13.17 0c.097.353.2.704.311 1.053l-.822 1.664h-.258c.305-.89.566-1.797.769-2.717zm-301.04.042l.844.698.794.657c-.257.432-.5.872-.727 1.32h-.075a12.806 12.806 0 00-1-.57c-.153-.077-.311-.143-.466-.217l.63-1.888zm235.474.023l.833.365c-.273.028-.547.052-.819.085 0-.15-.008-.3-.014-.45zm-97.486.009l.5.635c-.044.045-.091.086-.134.132-.159-.172-.331-.332-.501-.495l.125-.252.01-.02zm59.877.03l3.579 1.568c-.271.339-.53.686-.777 1.044h-4.108a15.46 15.46 0 00-.576-.723c.737-.523 1.399-1.152 1.882-1.889zm-62.724.044l.098.198c-.112.108-.223.217-.331.328l.233-.526zm-66.012.128c.035.06.073.118.108.178-.272.628-.355 1.357-.313 2.029.007.085 0 .159 0 .233h-.608l.813-2.44zm222.275.029l.804 2.413h-.21l-.822-1.664c.078-.249.157-.498.228-.749zm-81.203.235c0 .363.046.728.102 1.092-.13.1-.257.205-.384.309l-.769-.337c.359-.347.704-.706 1.051-1.064zm17.95.039l1.359 1.04c-.948.249-1.884.541-2.802.879.008-.077.011-.155.011-.229 0-.233-.014-.689-.02-1.054l1.452-.636zm-163.026.076c-.385.635-.623 1.334-.792 2.063h-2.602l.226-.676 3.168-1.387zm121.559.075l.982 1.988h-1.963l.981-1.988zm-101.704.031l1.515.663c0 .137 0 .273.007.406.025.409-.047.687-.18.888h-.334l-1.26-1.598c.09-.116.172-.237.252-.359zm178.81.06c.164.641.363 1.273.588 1.897h-.248a17.72 17.72 0 00-.956-1.271c.205-.209.416-.413.617-.626h-.001zm-217.58.1l.237.798c-.036.157-.075.313-.11.47l-.583-.445.456-.823zm180.217.414c-.084.468-.199.93-.34 1.383h-.549l-.444-.8 1.003-.439.33-.144zm9.696.091l-.651 1.175-.064.117h-.252c.087-.32.158-.64.212-.963l.104-.045.651-.284zm-244.887.022l2.288 1.002.089.269h-3.912l.671-.556.864-.715zm183.387.037l.252 1.233h-.431l-.961-.733 1.14-.5zm134.903.035c.008.06.008.118.014.177.049.345.12.685.208 1.02h-.622l.4-1.197zm-186.942.116l.218.158c.073.309.152.616.232.923h-.602c.073-.36.128-.72.152-1.081zm149.451.023c-.079.352-.16.704-.232 1.057h-.29l.522-1.057zm-32.855.029h.001l2.348 1.028h-2.398c.044-.133.07-.279.049-.46a2.696 2.696 0 010-.568zm-90.134.133l.661.895h-1.156l.495-.895zm3.617 0l.661.895h-1.156l.495-.895zm-36.694.114l.942.779h-1.426l.038-.184.446-.593v-.002zm67.923.169c-.025.203-.059.406-.08.61h-.258l.338-.61zm-76.62.064l1.247.546h-1.408c-.099-.033-.196-.07-.293-.107.152-.146.309-.286.454-.439zm168.728 0l.152.111v-.055l.356.49h-.573l.065-.546zm-192.305.02c.113.177.233.351.347.527h-1.038a9.54 9.54 0 00.691-.527zm4.783.102l.485.213.486.212h-1.205l.234-.425zm7.726.026l.095.4h-.151c-.074-.046-.147-.097-.221-.141.091-.087.186-.171.277-.259zm118.397.044l.073.356h-.504l.431-.356zm-42.209.099l.275.257h-.861l.586-.257zm-136.234.017l.177.24h-.31l.133-.24zm3.618 0l.178.24h-.311l.133-.24zm162.853.002l.176.238h-.308l.132-.238zm59.54 0l.132.238h-.308l.176-.238zm-111.812.102l-.088.138h-.549a3.98 3.98 0 01.637-.138z"></path>
    </g>
</svg>