<svg xmlns="http://www.w3.org/2000/svg" fillRule="evenodd" strokeLinejoin="round" strokeMiterlimit="2" clipRule="evenodd" viewBox="0 0 280 300">
    <g transform="translate(140 207.492) scale(.41982)">
        <g transform="translate(-333.475 -220.35)">
            <clipPath id="_clip1">
                <path d="M0 0H666.95V440.7H0z"></path>
            </clipPath>
            <g clipPath="url(#_clip1)">
                <g transform="translate(-68.009 -263.09)">
                    <path fill="#fff" d="M107.34 703.09a192.62 192.62 0 000-5.937c-.027-1.406-.095-2.83-.156-4.25-.377-8.725-1.414-17.108-3.188-24.781-1.774-7.674-4.269-14.642-7.312-20.719-2.778-5.641-6.001-10.512-9.25-14.531-3.249-4.019-6.537-7.178-9.438-9.657-6.557-4.374-10.313-7.373-9.969-8.218.365-.835 4.851.596 12.625 3.937 3.569 2.086 7.647 5.077 11.75 9.125 4.104 4.048 8.209 9.18 11.781 15.312 3.76 6.536 6.902 14.115 9.125 22.438 2.223 8.323 3.541 17.375 3.907 26.688.059 1.516.082 3.037.093 4.531a171.58 171.58 0 01-.062 6.063h-9.906v-.001z"></path>
                    <path fill="#fff" d="M139.93 703.09c.212-1.949.448-3.9.625-5.875 1.051-11.705 1.385-23.067 1.083-33.79a267.676 267.676 0 00-3.25-34.665c-1.663-10.42-3.737-19.546-5.666-27.123-1.928-7.578-3.676-13.611-4.75-17.832-1.073-4.22-1.478-6.637-.791-6.958.687-.32 2.394 1.485 4.749 5.25 2.356 3.765 5.376 9.502 8.458 16.999 3.083 7.497 6.198 16.775 8.75 27.54 2.552 10.766 4.512 23.013 5.291 36.248.661 11.282.515 23.258-.583 35.54-.14 1.57-.29 3.114-.458 4.667H139.93v-.001z"></path>
                    <path fill="#fff" d="M168.34 703.09c2.67-8.239 5.43-16.085 7.969-23.438 2.735-7.923 5.207-15.312 7.219-22.094 1.173-3.962 2.199-7.704 3.031-11.188a132.587 132.587 0 001.937-9.656c.467-2.916.77-5.565.969-7.875.199-2.311.283-4.276.344-5.906.06-1.631.119-2.925.219-3.813.099-.887.256-1.376.531-1.437.275-.062.661.311 1.094 1.125.432.813.922 2.08 1.375 3.75.453 1.669.851 3.746 1.125 6.218.273 2.473.394 5.319.312 8.469a96.325 96.325 0 01-.844 10.438c-.503 3.749-1.233 7.763-2.156 11.938-1.574 7.137-3.682 14.855-6.156 22.969-2.007 6.58-4.276 13.46-6.531 20.5H168.34z"></path>
                    <path fill="#fff" d="M212.03 703.09c.058-1.475.136-2.932.188-4.425.006-.147-.005-.302 0-.45.423-12.603.623-24.628.862-35.625s.541-20.964.975-29.325c.434-8.36.995-15.119 1.687-19.8.693-4.681 1.497-7.275 2.325-7.275.828 0 1.62 2.579 2.363 7.238.743 4.659 1.448 11.388 2.1 19.725a660.374 660.374 0 011.612 29.362c.368 11.07.502 23.271.075 36.112-.005.15.005.299 0 .45-.045 1.352-.129 2.673-.187 4.012h-12v.001z"></path>
                    <path fill="#fff" d="M243.44 703.09c.253-6.309.791-12.361 1.621-17.905 1.005-6.716 2.418-12.694 3.987-17.571 1.569-4.877 3.269-8.66 4.682-11.165 1.414-2.505 2.514-3.737 3.036-3.524.521.212.418 1.853-.052 4.605-.469 2.751-1.27 6.622-2.058 11.448a219.094 219.094 0 00-2.083 17.082c-.437 5.261-.714 11.01-.901 17.031h-8.232v-.001z"></path>
                    <path fill="#fff" d="M348.31 601.05c-.31-.005-.812.384-1.469 1.188-.751.918-1.705 2.379-2.75 4.343-1.045 1.965-2.174 4.439-3.25 7.438-1.076 2.999-2.089 6.53-2.875 10.5-.719 3.641-1.233 7.65-1.5 11.969-.267 4.319-.272 8.949.031 13.781.452 7.134 1.493 14.72 3.125 22.562 1.633 7.843 3.849 15.937 6.375 24.125a430.81 430.81 0 001.563 4.937c.206.644.418 1.267.625 1.907h10.438c-.526-1.642-1.04-3.243-1.563-4.907-.505-1.618-.997-3.236-1.5-4.875-2.467-8.038-4.693-15.858-6.468-23.312-1.775-7.454-3.088-14.544-3.875-21.219-.535-4.506-.853-8.822-.938-12.844-.085-4.021.06-7.755.344-11.188.614-7.469 1.946-13.45 2.906-17.594.48-2.072.849-3.699 1.031-4.844.183-1.144.166-1.797-.125-1.937a.3.3 0 00-.125-.031v.001z"></path>
                    <path fill="#fff" d="M297.76 601.76c-.113-.023-.265.02-.374.187-.11.167-.161.488-.188.712-.056.395-.061.907 0 1.497.121 1.167.471 2.735.974 4.606 1.001 3.719 2.689 8.829 4.718 15.053 4.007 12.283 9.446 29.154 13.668 49.053a312.473 312.473 0 014.943 30.93h12.095c-1.283-11.859-3.444-23.157-6.066-33.514a258.496 258.496 0 00-8.763-27.859c-3.12-8.262-6.3-15.437-9.211-21.344-2.961-6.009-5.604-10.666-7.639-13.93-1.032-1.66-1.879-2.922-2.546-3.819a12.097 12.097 0 00-.862-1.049c-.151-.233-.331-.266-.449-.337-.118-.07-.186-.164-.299-.187l-.001.001z"></path>
                    <path fill="#fff" d="M275.78 621.58c-.636.214-.415 2.796.406 7.281.821 4.486 2.231 10.896 3.875 18.812 1.645 7.916 3.517 17.317 4.938 27.812 1.187 8.771 2.056 18.31 2.187 28.312h9.906c-.272-10.621-1.48-20.654-3.156-29.75a220.083 220.083 0 00-7.156-28.188c-2.555-7.846-5.049-13.993-7-18.156-1.951-4.163-3.364-6.339-4-6.125v.002z"></path>
                    <path fill="#fff" d="M376.04 623.59c-.739 0-1.433 2.078-2.11 5.76-.677 3.683-1.35 8.987-2.009 15.573-.659 6.587-1.286 14.441-1.775 23.209-.49 8.768-.829 18.454-.637 28.668.006.34.026.667.034 1.005.035 1.763.098 3.521.167 5.258h10.717c-.056-1.816-.125-3.641-.167-5.492-.007-.33-.027-.641-.034-.972-.192-9.958-.181-19.514-.234-28.232-.053-8.718-.158-16.599-.469-23.242-.31-6.643-.801-12.022-1.407-15.741-.605-3.718-1.337-5.793-2.076-5.793v-.001z"></path>
                    <path fill="#fff" d="M385.87 631.86c-.657.204-.606 2.432-.156 6.281.45 3.849 1.302 9.327 2.187 16.094a477.422 477.422 0 012.5 23.844c.634 7.934 1.111 16.618 1.469 25.719h10c-.411-9.438-1.185-18.483-2.312-26.719-1.261-9.209-2.937-17.43-4.75-24.219-1.814-6.788-3.759-12.149-5.375-15.75-1.617-3.601-2.906-5.453-3.563-5.25z"></path>
                    <path fill="#fff" d="M96.14 690.79H734.96V703.8009999999999H96.14z"></path>
                    <path fill="#fff" d="M107.34 703.09a192.62 192.62 0 000-5.937c-.027-1.406-.095-2.83-.156-4.25-.377-8.725-1.414-17.108-3.188-24.781-1.774-7.674-4.269-14.642-7.312-20.719-2.778-5.641-6.001-10.512-9.25-14.531-3.249-4.019-6.537-7.178-9.438-9.657-6.557-4.374-10.313-7.373-9.969-8.218.365-.835 4.851.596 12.625 3.937 3.569 2.086 7.647 5.077 11.75 9.125 4.104 4.048 8.209 9.18 11.781 15.312 3.76 6.536 6.902 14.115 9.125 22.438 2.223 8.323 3.541 17.375 3.907 26.688.059 1.516.082 3.037.093 4.531a171.58 171.58 0 01-.062 6.063h-9.906v-.001z"></path>
                    <path fill="#fff" d="M139.93 703.09c.212-1.949.448-3.9.625-5.875 1.051-11.705 1.385-23.067 1.083-33.79a267.676 267.676 0 00-3.25-34.665c-1.663-10.42-3.737-19.546-5.666-27.123-1.928-7.578-3.676-13.611-4.75-17.832-1.073-4.22-1.478-6.637-.791-6.958.687-.32 2.394 1.485 4.749 5.25 2.356 3.765 5.376 9.502 8.458 16.999 3.083 7.497 6.198 16.775 8.75 27.54 2.552 10.766 4.512 23.013 5.291 36.248.661 11.282.515 23.258-.583 35.54-.14 1.57-.29 3.114-.458 4.667H139.93v-.001z"></path>
                    <path fill="#fff" d="M168.34 703.09c2.67-8.239 5.43-16.085 7.969-23.438 2.735-7.923 5.207-15.312 7.219-22.094 1.173-3.962 2.199-7.704 3.031-11.188a132.587 132.587 0 001.937-9.656c.467-2.916.77-5.565.969-7.875.199-2.311.283-4.276.344-5.906.06-1.631.119-2.925.219-3.813.099-.887.256-1.376.531-1.437.275-.062.661.311 1.094 1.125.432.813.922 2.08 1.375 3.75.453 1.669.851 3.746 1.125 6.218.273 2.473.394 5.319.312 8.469a96.325 96.325 0 01-.844 10.438c-.503 3.749-1.233 7.763-2.156 11.938-1.574 7.137-3.682 14.855-6.156 22.969-2.007 6.58-4.276 13.46-6.531 20.5H168.34z"></path>
                    <path fill="#fff" d="M212.03 703.09c.058-1.475.136-2.932.188-4.425.006-.147-.005-.302 0-.45.423-12.603.623-24.628.862-35.625s.541-20.964.975-29.325c.434-8.36.995-15.119 1.687-19.8.693-4.681 1.497-7.275 2.325-7.275.828 0 1.62 2.579 2.363 7.238.743 4.659 1.448 11.388 2.1 19.725a660.374 660.374 0 011.612 29.362c.368 11.07.502 23.271.075 36.112-.005.15.005.299 0 .45-.045 1.352-.129 2.673-.187 4.012h-12v.001z"></path>
                    <path fill="#fff" d="M243.44 703.09c.253-6.309.791-12.361 1.621-17.905 1.005-6.716 2.418-12.694 3.987-17.571 1.569-4.877 3.269-8.66 4.682-11.165 1.414-2.505 2.514-3.737 3.036-3.524.521.212.418 1.853-.052 4.605-.469 2.751-1.27 6.622-2.058 11.448a219.094 219.094 0 00-2.083 17.082c-.437 5.261-.714 11.01-.901 17.031h-8.232v-.001z"></path>
                    <path fill="#fff" d="M348.31 601.05c-.31-.005-.812.384-1.469 1.188-.751.918-1.705 2.379-2.75 4.343-1.045 1.965-2.174 4.439-3.25 7.438-1.076 2.999-2.089 6.53-2.875 10.5-.719 3.641-1.233 7.65-1.5 11.969-.267 4.319-.272 8.949.031 13.781.452 7.134 1.493 14.72 3.125 22.562 1.633 7.843 3.849 15.937 6.375 24.125a430.81 430.81 0 001.563 4.937c.206.644.418 1.267.625 1.907h10.438c-.526-1.642-1.04-3.243-1.563-4.907-.505-1.618-.997-3.236-1.5-4.875-2.467-8.038-4.693-15.858-6.468-23.312-1.775-7.454-3.088-14.544-3.875-21.219-.535-4.506-.853-8.822-.938-12.844-.085-4.021.06-7.755.344-11.188.614-7.469 1.946-13.45 2.906-17.594.48-2.072.849-3.699 1.031-4.844.183-1.144.166-1.797-.125-1.937a.3.3 0 00-.125-.031v.001z"></path>
                    <path fill="#fff" d="M297.76 601.76c-.113-.023-.265.02-.374.187-.11.167-.161.488-.188.712-.056.395-.061.907 0 1.497.121 1.167.471 2.735.974 4.606 1.001 3.719 2.689 8.829 4.718 15.053 4.007 12.283 9.446 29.154 13.668 49.053a312.473 312.473 0 014.943 30.93h12.095c-1.283-11.859-3.444-23.157-6.066-33.514a258.496 258.496 0 00-8.763-27.859c-3.12-8.262-6.3-15.437-9.211-21.344-2.961-6.009-5.604-10.666-7.639-13.93-1.032-1.66-1.879-2.922-2.546-3.819a12.097 12.097 0 00-.862-1.049c-.151-.233-.331-.266-.449-.337-.118-.07-.186-.164-.299-.187l-.001.001z"></path>
                    <path fill="#fff" d="M275.78 621.58c-.636.214-.415 2.796.406 7.281.821 4.486 2.231 10.896 3.875 18.812 1.645 7.916 3.517 17.317 4.938 27.812 1.187 8.771 2.056 18.31 2.187 28.312h9.906c-.272-10.621-1.48-20.654-3.156-29.75a220.083 220.083 0 00-7.156-28.188c-2.555-7.846-5.049-13.993-7-18.156-1.951-4.163-3.364-6.339-4-6.125v.002z"></path>
                    <path fill="#fff" d="M376.04 623.59c-.739 0-1.433 2.078-2.11 5.76-.677 3.683-1.35 8.987-2.009 15.573-.659 6.587-1.286 14.441-1.775 23.209-.49 8.768-.829 18.454-.637 28.668.006.34.026.667.034 1.005.035 1.763.098 3.521.167 5.258h10.717c-.056-1.816-.125-3.641-.167-5.492-.007-.33-.027-.641-.034-.972-.192-9.958-.181-19.514-.234-28.232-.053-8.718-.158-16.599-.469-23.242-.31-6.643-.801-12.022-1.407-15.741-.605-3.718-1.337-5.793-2.076-5.793v-.001z"></path>
                    <path fill="#fff" d="M385.87 631.86c-.657.204-.606 2.432-.156 6.281.45 3.849 1.302 9.327 2.187 16.094a477.422 477.422 0 012.5 23.844c.634 7.934 1.111 16.618 1.469 25.719h10c-.411-9.438-1.185-18.483-2.312-26.719-1.261-9.209-2.937-17.43-4.75-24.219-1.814-6.788-3.759-12.149-5.375-15.75-1.617-3.601-2.906-5.453-3.563-5.25z"></path>
                    <path fill="#fff" d="M115.4 693.07c.027-2.02.036-4.041 0-6.098-.028-1.443-.097-2.905-.16-4.364-.387-8.96-1.452-17.569-3.274-25.449-1.822-7.88-4.385-15.037-7.509-21.277-2.853-5.793-6.163-10.796-9.5-14.923-3.337-4.128-6.713-7.371-9.692-9.917-6.734-4.492-10.591-7.572-10.237-8.44.374-.857 4.982.613 12.965 4.044 3.665 2.141 7.853 5.214 12.067 9.371 4.214 4.156 8.431 9.427 12.099 15.725 3.862 6.712 7.088 14.495 9.371 23.042 2.283 8.547 3.637 17.843 4.012 27.407.061 1.557.084 3.118.096 4.653.02 2.104-.011 4.165-.064 6.226H115.4z"></path>
                    <path fill="#fff" d="M148.87 693.07c.217-2.001.46-4.005.642-6.033 1.08-12.02 1.422-23.689 1.112-34.701a275.136 275.136 0 00-3.337-35.599c-1.708-10.7-3.839-20.072-5.819-27.855-1.981-7.782-3.776-13.978-4.878-18.313-1.102-4.335-1.519-6.816-.813-7.145.706-.33 2.459 1.524 4.878 5.391 2.418 3.866 5.52 9.758 8.686 17.457 3.165 7.699 6.364 17.227 8.985 28.282 2.621 11.056 4.634 23.634 5.434 37.225.679 11.586.529 23.885-.599 36.498a252.387 252.387 0 01-.471 4.792h-13.82v.001z"></path>
                    <path fill="#fff" d="M178.05 693.07c2.742-8.461 5.577-16.519 8.184-24.069 2.809-8.136 5.347-15.725 7.413-22.689 1.205-4.069 2.259-7.912 3.113-11.489.854-3.577 1.5-6.886 1.99-9.917a111.3 111.3 0 00.994-8.087c.204-2.373.291-4.391.353-6.065.063-1.675.123-3.004.225-3.916.103-.911.264-1.412.546-1.476.282-.063.679.32 1.123 1.155.444.836.947 2.137 1.412 3.852.465 1.714.874 3.847 1.155 6.386.282 2.539.405 5.462.321 8.697a99.022 99.022 0 01-.866 10.719c-.518 3.85-1.266 7.972-2.215 12.259-1.616 7.329-3.781 15.255-6.322 23.588-2.061 6.757-4.391 13.823-6.707 21.053H178.05v-.001z"></path>
                    <path fill="#fff" d="M222.91 693.07c.06-1.514.139-3.011.193-4.544.006-.152-.005-.311 0-.462.434-12.943.64-25.291.885-36.585.246-11.294.556-21.53 1.002-30.115.445-8.586 1.021-15.527 1.733-20.334.711-4.807 1.537-7.471 2.387-7.471.851 0 1.663 2.648 2.426 7.432.763 4.785 1.487 11.695 2.157 20.257a677.706 677.706 0 011.656 30.154c.378 11.369.515 23.899.077 37.086-.005.155.005.308 0 .462-.046 1.389-.133 2.746-.192 4.121h-12.323l-.001-.001z"></path>
                    <path fill="#fff" d="M255.17 693.07c.26-6.479.812-12.695 1.664-18.388 1.033-6.897 2.484-13.036 4.095-18.044 1.612-5.009 3.357-8.894 4.809-11.466 1.451-2.572 2.581-3.838 3.117-3.619.536.218.429 1.903-.053 4.729-.481 2.825-1.304 6.8-2.113 11.757a225.406 225.406 0 00-2.14 17.542c-.449 5.403-.733 11.307-.925 17.49h-8.454v-.001z"></path>
                    <path fill="#fff" d="M362.87 588.28c-.318-.005-.834.394-1.508 1.22-.771.943-1.751 2.443-2.824 4.46-1.074 2.018-2.233 4.559-3.338 7.638-1.105 3.08-2.145 6.707-2.952 10.783-.739 3.739-1.267 7.856-1.541 12.291a114.39 114.39 0 00.032 14.153c.464 7.327 1.533 15.116 3.209 23.171 1.677 8.055 3.953 16.366 6.547 24.775a448.024 448.024 0 001.605 5.071c.211.661.429 1.301.642 1.958h10.719c-.54-1.686-1.068-3.331-1.605-5.039-.519-1.662-1.024-3.323-1.54-5.006-2.534-8.255-4.821-16.286-6.644-23.941-1.822-7.656-3.171-14.936-3.979-21.791-.549-4.628-.875-9.061-.963-13.19-.087-4.13.061-7.964.353-11.489.631-7.671 1.999-13.813 2.985-18.068.493-2.128.872-3.799 1.059-4.975.187-1.175.17-1.846-.129-1.989a.299.299 0 00-.128-.032z"></path>
                    <path fill="#fff" d="M310.95 589.01c-.116-.023-.272.021-.385.192-.112.172-.165.501-.192.731-.057.405-.063.932 0 1.538.124 1.198.483 2.809 1 4.73 1.028 3.819 2.761 9.066 4.845 15.459 4.115 12.614 9.701 29.94 14.036 50.376a320.79 320.79 0 015.076 31.764h12.421c-1.317-12.179-3.536-23.781-6.229-34.417a265.255 265.255 0 00-8.999-28.61c-3.204-8.485-6.47-15.853-9.46-21.919-3.04-6.171-5.755-10.953-7.844-14.305-1.06-1.705-1.93-3.001-2.615-3.922a12.569 12.569 0 00-.885-1.077c-.156-.24-.34-.274-.461-.346-.121-.073-.192-.169-.308-.192v-.002z"></path>
                    <path fill="#fff" d="M288.38 609.36c-.653.22-.426 2.871.417 7.478.843 4.606 2.291 11.19 3.98 19.32 1.688 8.129 3.611 17.784 5.07 28.562 1.22 9.006 2.111 18.803 2.247 29.076h10.173c-.28-10.907-1.521-21.211-3.242-30.552a226.029 226.029 0 00-7.349-28.947c-2.623-8.058-5.185-14.37-7.188-18.646-2.004-4.276-3.456-6.51-4.108-6.291z"></path>
                    <path fill="#fff" d="M391.35 611.43c-.759 0-1.472 2.134-2.167 5.916-.695 3.782-1.387 9.228-2.063 15.993-.677 6.764-1.32 14.831-1.823 23.835-.503 9.004-.851 18.951-.654 29.441.006.348.027.684.035 1.032.036 1.81.1 3.616.172 5.399h11.006c-.058-1.864-.129-3.739-.172-5.64-.007-.339-.028-.658-.035-.998-.197-10.227-.186-20.04-.24-28.994-.054-8.953-.163-17.047-.482-23.869-.319-6.822-.823-12.346-1.444-16.165-.622-3.819-1.373-5.95-2.133-5.95z"></path>
                    <path fill="#fff" d="M401.44 619.92c-.675.209-.622 2.498-.16 6.451.461 3.952 1.337 9.578 2.246 16.528a490.933 490.933 0 012.567 24.486c.651 8.147 1.141 17.065 1.509 26.412h10.27c-.423-9.693-1.217-18.981-2.375-27.439-1.295-9.458-3.015-17.9-4.878-24.872-1.863-6.972-3.86-12.476-5.52-16.175-1.66-3.699-2.984-5.601-3.658-5.392l-.001.001z"></path>
                    <path fill="#fff" d="M135.49 696.17c.023-1.741.031-3.484 0-5.256-.024-1.244-.084-2.505-.138-3.762-.334-7.723-1.252-15.144-2.822-21.937-1.57-6.793-3.78-12.961-6.473-18.341-2.459-4.993-5.312-9.306-8.188-12.863-2.876-3.558-5.787-6.354-8.354-8.548-5.805-3.872-9.13-6.527-8.825-7.275.322-.739 4.294.528 11.176 3.485 3.159 1.846 6.769 4.495 10.401 8.078 3.632 3.583 7.267 8.126 10.429 13.555 3.328 5.785 6.11 12.495 8.078 19.862 1.967 7.367 3.134 15.38 3.458 23.624.052 1.342.072 2.688.082 4.011.018 1.813-.01 3.59-.055 5.366h-8.769v.001z"></path>
                    <path fill="#fff" d="M164.34 696.17c.187-1.725.396-3.453.553-5.2.931-10.361 1.226-20.42.959-29.911a236.963 236.963 0 00-2.877-30.686c-1.472-9.224-3.309-17.302-5.016-24.01-1.707-6.708-3.254-12.049-4.204-15.785-.95-3.737-1.309-5.876-.701-6.16.608-.284 2.12 1.315 4.205 4.647 2.084 3.333 4.758 8.412 7.487 15.048 2.728 6.637 5.485 14.849 7.745 24.379 2.259 9.53 3.994 20.372 4.684 32.087.585 9.987.455 20.589-.517 31.46-.124 1.39-.257 2.757-.405 4.131H164.34z"></path>
                    <path fill="#fff" d="M189.49 696.17c2.364-7.293 4.807-14.239 7.054-20.747 2.422-7.013 4.609-13.555 6.39-19.558 1.039-3.507 1.947-6.82 2.684-9.903a117.635 117.635 0 001.715-8.548c.413-2.581.681-4.926.857-6.971.176-2.046.251-3.785.304-5.229.054-1.443.106-2.589.194-3.375.088-.785.227-1.217.47-1.272.244-.055.586.276.969.996s.816 1.841 1.217 3.319c.401 1.478.753 3.317.996 5.505.242 2.189.349 4.708.276 7.497a85.275 85.275 0 01-.747 9.239c-.446 3.319-1.091 6.872-1.908 10.567-1.394 6.318-3.26 13.15-5.45 20.332-1.776 5.825-3.785 11.915-5.782 18.147h-9.239v.001z"></path>
                    <path fill="#fff" d="M228.16 696.17c.051-1.305.12-2.595.166-3.917.005-.131-.004-.268 0-.398.374-11.156.552-21.801.763-31.536.212-9.735.479-18.558.864-25.959.384-7.401.88-13.384 1.493-17.527.614-4.144 1.326-6.44 2.058-6.44.733 0 1.434 2.282 2.092 6.406.657 4.125 1.281 10.081 1.859 17.461a585.121 585.121 0 011.427 25.992c.325 9.8.444 20.6.066 31.967-.004.134.004.266 0 .399-.04 1.197-.114 2.366-.166 3.552h-10.623.001z"></path>
                    <path fill="#fff" d="M255.96 696.17c.224-5.585.7-10.942 1.435-15.85.889-5.945 2.141-11.237 3.53-15.554 1.388-4.317 2.893-7.666 4.144-9.884 1.252-2.217 2.226-3.308 2.687-3.119.462.188.37 1.64-.045 4.076s-1.124 5.862-1.822 10.134a194.144 194.144 0 00-1.844 15.121c-.387 4.657-.632 9.746-.798 15.076h-7.287z"></path>
                    <path fill="#fff" d="M348.8 605.84c-.274-.004-.719.34-1.3 1.051-.665.813-1.509 2.106-2.435 3.845-.925 1.74-1.924 3.929-2.877 6.584a65.206 65.206 0 00-2.545 9.295c-.636 3.223-1.091 6.772-1.327 10.595a98.442 98.442 0 00.027 12.199c.4 6.316 1.322 13.03 2.766 19.973 1.445 6.943 3.407 14.108 5.644 21.356.456 1.478.918 2.923 1.383 4.371.182.57.37 1.122.553 1.687h9.24c-.466-1.453-.921-2.87-1.384-4.343-.447-1.432-.882-2.865-1.327-4.315-2.185-7.116-4.155-14.038-5.727-20.637-1.571-6.599-2.733-12.875-3.43-18.783-.473-3.989-.754-7.81-.83-11.369a95.37 95.37 0 01.305-9.904c.543-6.612 1.723-11.906 2.572-15.574.425-1.834.752-3.274.913-4.287.162-1.014.147-1.592-.111-1.716a.266.266 0 00-.11-.027v-.001z"></path>
                    <path fill="#fff" d="M304.05 606.47c-.1-.02-.235.018-.331.166-.097.147-.143.432-.166.63-.05.349-.054.803 0 1.325.107 1.033.416 2.421.862 4.078.886 3.291 2.38 7.815 4.176 13.325 3.547 10.873 8.362 25.808 12.099 43.423a276.584 276.584 0 014.376 27.38h10.707c-1.136-10.498-3.049-20.499-5.37-29.667a228.808 228.808 0 00-7.757-24.662c-2.761-7.315-5.577-13.665-8.154-18.894-2.621-5.32-4.961-9.442-6.762-12.331-.913-1.47-1.663-2.587-2.254-3.381a10.646 10.646 0 00-.762-.929c-.134-.206-.294-.235-.398-.298-.104-.062-.165-.146-.265-.166l-.001.001z"></path>
                    <path fill="#fff" d="M284.59 624.02c-.563.189-.367 2.475.36 6.446.726 3.97 1.974 9.645 3.43 16.653 1.456 7.007 3.113 15.33 4.371 24.62 1.051 7.763 1.819 16.208 1.936 25.063h8.769c-.241-9.402-1.31-18.283-2.794-26.335a194.675 194.675 0 00-6.335-24.952c-2.261-6.946-4.469-12.387-6.196-16.072-1.727-3.686-2.978-5.612-3.541-5.422v-.001z"></path>
                    <path fill="#fff" d="M373.35 625.8c-.655 0-1.269 1.839-1.868 5.099-.599 3.26-1.195 7.955-1.778 13.786-.584 5.831-1.138 12.784-1.572 20.545-.433 7.761-.733 16.335-.563 25.377.005.301.023.59.03.89.031 1.56.086 3.117.148 4.654h9.487c-.05-1.607-.111-3.223-.149-4.862-.006-.292-.024-.567-.029-.86-.171-8.815-.161-17.274-.208-24.992-.046-7.717-.14-14.694-.415-20.575-.275-5.88-.709-10.642-1.245-13.934-.536-3.291-1.183-5.128-1.838-5.128z"></path>
                    <path fill="#fff" d="M382.05 633.12c-.582.18-.536 2.153-.138 5.56.398 3.408 1.152 8.257 1.936 14.246a422.435 422.435 0 012.213 21.107c.561 7.023.984 14.71 1.3 22.767h8.852c-.364-8.355-1.049-16.361-2.047-23.652-1.116-8.152-2.599-15.429-4.204-21.439-1.606-6.009-3.328-10.754-4.758-13.942-1.431-3.188-2.572-4.827-3.154-4.647z"></path>
                    <path fill="#fff" d="M278.55 696.17c-.187-1.725-.396-3.453-.553-5.2-.931-10.361-1.226-20.42-.959-29.911a236.963 236.963 0 012.877-30.686c1.472-9.224 3.309-17.302 5.016-24.01 1.707-6.708 3.254-12.049 4.204-15.785.95-3.737 1.309-5.876.701-6.16-.608-.284-2.12 1.315-4.205 4.647-2.084 3.333-4.758 8.412-7.487 15.048-2.728 6.637-5.485 14.849-7.745 24.379-2.259 9.53-3.994 20.372-4.684 32.087-.585 9.987-.455 20.589.517 31.46.124 1.39.257 2.757.405 4.131h11.913z"></path>
                    <path fill="#fff" d="M243.08 605.84c.274-.004.719.34 1.3 1.051.665.813 1.509 2.106 2.435 3.845.925 1.74 1.924 3.929 2.877 6.584a65.206 65.206 0 012.545 9.295c.636 3.223 1.091 6.772 1.327 10.595a98.442 98.442 0 01-.027 12.199c-.4 6.316-1.322 13.03-2.766 19.973-1.445 6.943-3.407 14.108-5.644 21.356a397.379 397.379 0 01-1.383 4.371c-.182.57-.37 1.122-.553 1.687h-9.24c.466-1.453.921-2.87 1.384-4.343.447-1.432.882-2.865 1.327-4.315 2.185-7.116 4.155-14.038 5.727-20.637 1.571-6.599 2.733-12.875 3.43-18.783.473-3.989.754-7.81.83-11.369a95.37 95.37 0 00-.305-9.904c-.543-6.612-1.723-11.906-2.572-15.574-.425-1.834-.752-3.274-.913-4.287-.162-1.014-.147-1.592.111-1.716a.266.266 0 01.11-.027v-.001z"></path>
                    <path fill="#fff" d="M372.84 611.47c.1-.02.235.018.331.166.097.147.143.432.166.63.05.349.054.803 0 1.325-.107 1.033-.416 2.421-.862 4.078-.886 3.291-2.38 7.815-4.176 13.325-3.547 10.873-8.362 25.808-12.099 43.423a276.584 276.584 0 00-4.376 27.38h-10.707c1.136-10.498 3.049-20.499 5.37-29.667a228.808 228.808 0 017.757-24.662c2.761-7.315 5.577-13.665 8.154-18.894 2.621-5.32 4.961-9.442 6.762-12.331.913-1.47 1.663-2.587 2.254-3.381.302-.411.555-.704.762-.929.134-.206.294-.235.398-.298.104-.062.165-.146.265-.166l.001.001z"></path>
                    <path fill="#fff" d="M418.29 624.02c.563.189.367 2.475-.36 6.446-.726 3.97-1.974 9.645-3.43 16.653-1.456 7.007-3.113 15.33-4.371 24.62-1.051 7.763-1.819 16.208-1.936 25.063h-8.769c.241-9.402 1.31-18.283 2.794-26.335a194.675 194.675 0 016.335-24.952c2.261-6.946 4.469-12.387 6.196-16.072 1.727-3.686 2.978-5.612 3.541-5.422v-.001z"></path>
                    <path fill="#fff" d="M197.54 622.8c.655 0 1.269 1.839 1.868 5.099.599 3.26 1.195 7.955 1.779 13.786.583 5.831 1.137 12.784 1.571 20.545.433 7.761.733 16.335.563 25.377-.005.301-.023.59-.03.89a227.88 227.88 0 01-.148 4.654h-9.487c.05-1.607.111-3.223.149-4.862.006-.292.024-.567.029-.86.171-8.815.161-17.274.208-24.992.046-7.717.14-14.694.415-20.575.275-5.88.709-10.642 1.245-13.934.536-3.291 1.183-5.128 1.838-5.128z"></path>
                    <path fill="#fff" d="M262.83 629.12c.582.18.536 2.153.138 5.56-.398 3.408-1.152 8.257-1.936 14.246a422.435 422.435 0 00-2.213 21.107c-.561 7.023-.984 14.71-1.3 22.767h-8.852c.364-8.355 1.049-16.361 2.047-23.652 1.116-8.152 2.599-15.429 4.204-21.439 1.606-6.009 3.328-10.754 4.758-13.942 1.431-3.188 2.572-4.827 3.154-4.647z"></path>
                    <path fill="#fff" d="M407.34 703.09a192.62 192.62 0 000-5.937c-.027-1.406-.095-2.83-.156-4.25-.377-8.725-1.414-17.108-3.188-24.781-1.774-7.674-4.269-14.642-7.312-20.719-2.778-5.641-6.001-10.512-9.25-14.531-3.249-4.019-6.537-7.178-9.438-9.657-6.557-4.374-10.313-7.373-9.969-8.218.365-.835 4.851.596 12.625 3.937 3.569 2.086 7.647 5.077 11.75 9.125 4.104 4.048 8.209 9.18 11.781 15.312 3.76 6.536 6.902 14.115 9.125 22.438 2.223 8.323 3.541 17.375 3.907 26.688.059 1.516.082 3.037.093 4.531a171.58 171.58 0 01-.062 6.063h-9.906v-.001z"></path>
                    <path fill="#fff" d="M439.93 703.09c.212-1.949.448-3.9.625-5.875 1.051-11.705 1.385-23.067 1.083-33.79a267.676 267.676 0 00-3.25-34.665c-1.663-10.42-3.737-19.546-5.666-27.123-1.928-7.578-3.676-13.611-4.75-17.832-1.073-4.22-1.478-6.637-.791-6.958.687-.32 2.394 1.485 4.749 5.25 2.356 3.765 5.376 9.502 8.458 16.999 3.083 7.497 6.198 16.775 8.75 27.54 2.552 10.766 4.512 23.013 5.291 36.248.661 11.282.515 23.258-.583 35.54-.14 1.57-.29 3.114-.458 4.667H439.93v-.001z"></path>
                    <path fill="#fff" d="M468.34 703.09c2.67-8.239 5.43-16.085 7.969-23.438 2.735-7.923 5.207-15.312 7.219-22.094 1.173-3.962 2.199-7.704 3.031-11.188a132.587 132.587 0 001.937-9.656c.467-2.916.77-5.565.969-7.875.199-2.311.283-4.276.344-5.906.06-1.631.119-2.925.219-3.813.099-.887.256-1.376.531-1.437.275-.062.661.311 1.094 1.125.432.813.922 2.08 1.375 3.75.453 1.669.851 3.746 1.125 6.218.273 2.473.394 5.319.312 8.469a96.325 96.325 0 01-.844 10.438c-.503 3.749-1.233 7.763-2.156 11.938-1.574 7.137-3.682 14.855-6.156 22.969-2.007 6.58-4.276 13.46-6.531 20.5H468.34z"></path>
                    <path fill="#fff" d="M615.22 703.09c-.058-1.475-.136-2.932-.187-4.425-.006-.147.005-.302 0-.45-.424-12.603-.624-24.628-.863-35.625s-.541-20.964-.975-29.325c-.434-8.36-.995-15.119-1.687-19.8-.693-4.681-1.497-7.275-2.325-7.275-.828 0-1.62 2.579-2.363 7.238-.743 4.659-1.448 11.388-2.1 19.725a660.374 660.374 0 00-1.612 29.362c-.368 11.07-.502 23.271-.075 36.112.005.15-.005.299 0 .45.045 1.352.129 2.673.187 4.012h12v.001z"></path>
                    <path fill="#fff" d="M583.81 703.09c-.253-6.309-.791-12.361-1.621-17.905-1.005-6.716-2.418-12.694-3.987-17.571-1.569-4.877-3.269-8.66-4.682-11.165-1.414-2.505-2.514-3.737-3.036-3.524-.521.212-.418 1.853.051 4.605.47 2.751 1.271 6.622 2.059 11.448a219.094 219.094 0 012.083 17.082c.437 5.261.714 11.01.901 17.031h8.232v-.001z"></path>
                    <path fill="#fff" d="M648.31 601.05c-.31-.005-.812.384-1.469 1.188-.751.918-1.705 2.379-2.75 4.343-1.045 1.965-2.174 4.439-3.25 7.438-1.076 2.999-2.089 6.53-2.875 10.5-.719 3.641-1.233 7.65-1.5 11.969-.267 4.319-.272 8.949.031 13.781.452 7.134 1.493 14.72 3.125 22.562 1.633 7.843 3.849 15.937 6.375 24.125a430.81 430.81 0 001.563 4.937c.206.644.418 1.267.625 1.907h10.438c-.526-1.642-1.04-3.243-1.563-4.907-.505-1.618-.997-3.236-1.5-4.875-2.467-8.038-4.693-15.858-6.468-23.312-1.775-7.454-3.088-14.544-3.875-21.219-.535-4.506-.853-8.822-.938-12.844-.085-4.021.06-7.755.344-11.188.614-7.469 1.946-13.45 2.906-17.594.48-2.072.849-3.699 1.031-4.844.183-1.144.166-1.797-.125-1.937a.3.3 0 00-.125-.031v.001z"></path>
                    <path fill="#fff" d="M529.49 601.76c.113-.023.265.02.374.187.11.167.161.488.188.712.056.395.061.907 0 1.497-.121 1.167-.471 2.735-.974 4.606-1.001 3.719-2.688 8.829-4.718 15.053-4.006 12.283-9.446 29.154-13.668 49.053a312.473 312.473 0 00-4.943 30.93h-12.095c1.283-11.859 3.444-23.157 6.066-33.514a258.496 258.496 0 018.763-27.859c3.12-8.262 6.3-15.437 9.211-21.344 2.961-6.009 5.604-10.666 7.639-13.93 1.032-1.66 1.879-2.922 2.546-3.819.341-.463.628-.795.862-1.049.151-.233.331-.266.449-.337.118-.07.186-.164.299-.187l.001.001z"></path>
                    <path fill="#fff" d="M551.47 621.58c.636.214.415 2.796-.406 7.281-.821 4.486-2.231 10.896-3.875 18.812-1.645 7.916-3.517 17.317-4.938 27.812-1.187 8.771-2.056 18.31-2.187 28.312h-9.906c.272-10.621 1.48-20.654 3.156-29.75a220.083 220.083 0 017.156-28.188c2.555-7.846 5.049-13.993 7-18.156 1.951-4.163 3.364-6.339 4-6.125v.002z"></path>
                    <path fill="#fff" d="M676.04 623.59c-.739 0-1.433 2.078-2.11 5.76-.677 3.683-1.35 8.987-2.009 15.573-.659 6.587-1.286 14.441-1.775 23.209-.49 8.768-.829 18.454-.637 28.668.006.34.026.667.034 1.005.035 1.763.098 3.521.167 5.258h10.717c-.056-1.816-.125-3.641-.167-5.492-.007-.33-.027-.641-.034-.972-.192-9.958-.181-19.514-.234-28.232-.053-8.718-.158-16.599-.469-23.242-.31-6.643-.801-12.022-1.407-15.741-.605-3.718-1.337-5.793-2.076-5.793v-.001z"></path>
                    <path fill="#fff" d="M685.87 631.86c-.657.204-.606 2.432-.156 6.281.45 3.849 1.302 9.327 2.187 16.094a477.422 477.422 0 012.5 23.844c.634 7.934 1.111 16.618 1.469 25.719h10c-.411-9.438-1.185-18.483-2.312-26.719-1.261-9.209-2.937-17.43-4.75-24.219-1.814-6.788-3.759-12.149-5.375-15.75-1.617-3.601-2.906-5.453-3.563-5.25z"></path>
                    <path fill="#fff" d="M407.34 703.09a192.62 192.62 0 000-5.937c-.027-1.406-.095-2.83-.156-4.25-.377-8.725-1.414-17.108-3.188-24.781-1.774-7.674-4.269-14.642-7.312-20.719-2.778-5.641-6.001-10.512-9.25-14.531-3.249-4.019-6.537-7.178-9.438-9.657-6.557-4.374-10.313-7.373-9.969-8.218.365-.835 4.851.596 12.625 3.937 3.569 2.086 7.647 5.077 11.75 9.125 4.104 4.048 8.209 9.18 11.781 15.312 3.76 6.536 6.902 14.115 9.125 22.438 2.223 8.323 3.541 17.375 3.907 26.688.059 1.516.082 3.037.093 4.531a171.58 171.58 0 01-.062 6.063h-9.906v-.001z"></path>
                    <path fill="#fff" d="M439.93 703.09c.212-1.949.448-3.9.625-5.875 1.051-11.705 1.385-23.067 1.083-33.79a267.676 267.676 0 00-3.25-34.665c-1.663-10.42-3.737-19.546-5.666-27.123-1.928-7.578-3.676-13.611-4.75-17.832-1.073-4.22-1.478-6.637-.791-6.958.687-.32 2.394 1.485 4.749 5.25 2.356 3.765 5.376 9.502 8.458 16.999 3.083 7.497 6.198 16.775 8.75 27.54 2.552 10.766 4.512 23.013 5.291 36.248.661 11.282.515 23.258-.583 35.54-.14 1.57-.29 3.114-.458 4.667H439.93v-.001z"></path>
                    <path fill="#fff" d="M468.34 703.09c2.67-8.239 5.43-16.085 7.969-23.438 2.735-7.923 5.207-15.312 7.219-22.094 1.173-3.962 2.199-7.704 3.031-11.188a132.587 132.587 0 001.937-9.656c.467-2.916.77-5.565.969-7.875.199-2.311.283-4.276.344-5.906.06-1.631.119-2.925.219-3.813.099-.887.256-1.376.531-1.437.275-.062.661.311 1.094 1.125.432.813.922 2.08 1.375 3.75.453 1.669.851 3.746 1.125 6.218.273 2.473.394 5.319.312 8.469a96.325 96.325 0 01-.844 10.438c-.503 3.749-1.233 7.763-2.156 11.938-1.574 7.137-3.682 14.855-6.156 22.969-2.007 6.58-4.276 13.46-6.531 20.5H468.34z"></path>
                    <path fill="#fff" d="M615.22 703.09c-.058-1.475-.136-2.932-.187-4.425-.006-.147.005-.302 0-.45-.424-12.603-.624-24.628-.863-35.625s-.541-20.964-.975-29.325c-.434-8.36-.995-15.119-1.687-19.8-.693-4.681-1.497-7.275-2.325-7.275-.828 0-1.62 2.579-2.363 7.238-.743 4.659-1.448 11.388-2.1 19.725a660.374 660.374 0 00-1.612 29.362c-.368 11.07-.502 23.271-.075 36.112.005.15-.005.299 0 .45.045 1.352.129 2.673.187 4.012h12v.001z"></path>
                    <path fill="#fff" d="M583.81 703.09c-.253-6.309-.791-12.361-1.621-17.905-1.005-6.716-2.418-12.694-3.987-17.571-1.569-4.877-3.269-8.66-4.682-11.165-1.414-2.505-2.514-3.737-3.036-3.524-.521.212-.418 1.853.051 4.605.47 2.751 1.271 6.622 2.059 11.448a219.094 219.094 0 012.083 17.082c.437 5.261.714 11.01.901 17.031h8.232v-.001z"></path>
                    <path fill="#fff" d="M648.31 601.05c-.31-.005-.812.384-1.469 1.188-.751.918-1.705 2.379-2.75 4.343-1.045 1.965-2.174 4.439-3.25 7.438-1.076 2.999-2.089 6.53-2.875 10.5-.719 3.641-1.233 7.65-1.5 11.969-.267 4.319-.272 8.949.031 13.781.452 7.134 1.493 14.72 3.125 22.562 1.633 7.843 3.849 15.937 6.375 24.125a430.81 430.81 0 001.563 4.937c.206.644.418 1.267.625 1.907h10.438c-.526-1.642-1.04-3.243-1.563-4.907-.505-1.618-.997-3.236-1.5-4.875-2.467-8.038-4.693-15.858-6.468-23.312-1.775-7.454-3.088-14.544-3.875-21.219-.535-4.506-.853-8.822-.938-12.844-.085-4.021.06-7.755.344-11.188.614-7.469 1.946-13.45 2.906-17.594.48-2.072.849-3.699 1.031-4.844.183-1.144.166-1.797-.125-1.937a.3.3 0 00-.125-.031v.001z"></path>
                    <path fill="#fff" d="M529.49 601.76c.113-.023.265.02.374.187.11.167.161.488.188.712.056.395.061.907 0 1.497-.121 1.167-.471 2.735-.974 4.606-1.001 3.719-2.688 8.829-4.718 15.053-4.006 12.283-9.446 29.154-13.668 49.053a312.473 312.473 0 00-4.943 30.93h-12.095c1.283-11.859 3.444-23.157 6.066-33.514a258.496 258.496 0 018.763-27.859c3.12-8.262 6.3-15.437 9.211-21.344 2.961-6.009 5.604-10.666 7.639-13.93 1.032-1.66 1.879-2.922 2.546-3.819.341-.463.628-.795.862-1.049.151-.233.331-.266.449-.337.118-.07.186-.164.299-.187l.001.001z"></path>
                    <path fill="#fff" d="M551.47 621.58c.636.214.415 2.796-.406 7.281-.821 4.486-2.231 10.896-3.875 18.812-1.645 7.916-3.517 17.317-4.938 27.812-1.187 8.771-2.056 18.31-2.187 28.312h-9.906c.272-10.621 1.48-20.654 3.156-29.75a220.083 220.083 0 017.156-28.188c2.555-7.846 5.049-13.993 7-18.156 1.951-4.163 3.364-6.339 4-6.125v.002z"></path>
                    <path fill="#fff" d="M676.04 623.59c-.739 0-1.433 2.078-2.11 5.76-.677 3.683-1.35 8.987-2.009 15.573-.659 6.587-1.286 14.441-1.775 23.209-.49 8.768-.829 18.454-.637 28.668.006.34.026.667.034 1.005.035 1.763.098 3.521.167 5.258h10.717c-.056-1.816-.125-3.641-.167-5.492-.007-.33-.027-.641-.034-.972-.192-9.958-.181-19.514-.234-28.232-.053-8.718-.158-16.599-.469-23.242-.31-6.643-.801-12.022-1.407-15.741-.605-3.718-1.337-5.793-2.076-5.793v-.001z"></path>
                    <path fill="#fff" d="M685.87 631.86c-.657.204-.606 2.432-.156 6.281.45 3.849 1.302 9.327 2.187 16.094a477.422 477.422 0 012.5 23.844c.634 7.934 1.111 16.618 1.469 25.719h10c-.411-9.438-1.185-18.483-2.312-26.719-1.261-9.209-2.937-17.43-4.75-24.219-1.814-6.788-3.759-12.149-5.375-15.75-1.617-3.601-2.906-5.453-3.563-5.25z"></path>
                    <path fill="#fff" d="M415.4 693.07c.027-2.02.036-4.041 0-6.098-.028-1.443-.098-2.905-.16-4.364-.387-8.96-1.452-17.569-3.274-25.449-1.822-7.88-4.385-15.037-7.509-21.277-2.853-5.793-6.163-10.796-9.5-14.923-3.337-4.128-6.713-7.371-9.692-9.917-6.734-4.492-10.591-7.572-10.237-8.44.374-.857 4.982.613 12.965 4.044 3.665 2.141 7.853 5.214 12.067 9.371 4.214 4.156 8.431 9.427 12.099 15.725 3.862 6.712 7.088 14.495 9.371 23.042 2.283 8.547 3.637 17.843 4.012 27.407.061 1.557.084 3.118.096 4.653.02 2.104-.011 4.165-.064 6.226H415.4z"></path>
                    <path fill="#fff" d="M445.68 693.07c.263-2.279.556-4.561.776-6.87 1.305-13.689 1.719-26.977 1.345-39.517a295.814 295.814 0 00-4.035-40.54c-2.064-12.186-4.64-22.859-7.034-31.721-2.393-8.863-4.563-15.919-5.896-20.855-1.332-4.937-1.835-7.763-.982-8.138.852-.375 2.972 1.737 5.896 6.14 2.923 4.403 6.673 11.113 10.499 19.88 3.826 8.767 7.693 19.618 10.861 32.208 3.168 12.59 5.601 26.914 6.568 42.392.821 13.194.639 27.201-.724 41.564-.174 1.835-.36 3.642-.569 5.457h-16.706.001z"></path>
                    <path fill="#fff" d="M478.05 693.07c2.742-8.461 5.577-16.519 8.184-24.069 2.809-8.136 5.347-15.725 7.413-22.689 1.205-4.069 2.259-7.912 3.113-11.489.854-3.577 1.5-6.886 1.99-9.917a111.3 111.3 0 00.994-8.087c.204-2.373.291-4.391.353-6.065.063-1.675.123-3.004.225-3.916.103-.911.264-1.412.546-1.476.282-.063.679.32 1.123 1.155.444.836.947 2.137 1.412 3.852.465 1.714.874 3.847 1.155 6.386.282 2.539.405 5.462.321 8.697a99.022 99.022 0 01-.866 10.719c-.518 3.85-1.266 7.972-2.215 12.259-1.616 7.329-3.781 15.255-6.322 23.588-2.061 6.757-4.391 13.823-6.707 21.053H478.05v-.001z"></path>
                    <path fill="#fff" d="M604.33 693.07c-.06-1.514-.139-3.011-.193-4.544-.006-.152.005-.311 0-.462-.434-12.943-.64-25.291-.885-36.585-.246-11.294-.556-21.53-1.002-30.115-.445-8.586-1.021-15.527-1.733-20.334-.711-4.807-1.537-7.471-2.387-7.471-.851 0-1.663 2.648-2.426 7.432-.763 4.785-1.487 11.695-2.157 20.257a677.706 677.706 0 00-1.656 30.154c-.378 11.369-.515 23.899-.077 37.086.005.155-.005.308 0 .462.046 1.389.133 2.746.192 4.121h12.323l.001-.001z"></path>
                    <path fill="#fff" d="M572.08 693.07c-.26-6.479-.812-12.695-1.664-18.388-1.033-6.897-2.484-13.036-4.095-18.044-1.612-5.009-3.357-8.894-4.809-11.466-1.451-2.572-2.582-3.838-3.117-3.619-.536.218-.429 1.903.053 4.729.481 2.825 1.304 6.8 2.113 11.757a225.406 225.406 0 012.14 17.542c.449 5.403.733 11.307.925 17.49h8.454v-.001z"></path>
                    <path fill="#fff" d="M662.87 588.28c-.318-.005-.834.394-1.508 1.22-.771.943-1.751 2.443-2.824 4.46-1.074 2.018-2.233 4.559-3.338 7.638-1.105 3.08-2.145 6.707-2.952 10.783-.739 3.739-1.267 7.856-1.541 12.291a114.39 114.39 0 00.032 14.153c.464 7.327 1.533 15.116 3.209 23.171 1.677 8.055 3.953 16.366 6.547 24.775a448.024 448.024 0 001.605 5.071c.211.661.429 1.301.642 1.958h10.719c-.54-1.686-1.068-3.331-1.605-5.039-.519-1.662-1.024-3.323-1.54-5.006-2.534-8.255-4.821-16.286-6.644-23.941-1.822-7.656-3.171-14.936-3.979-21.791-.549-4.628-.875-9.061-.963-13.19-.087-4.13.061-7.964.353-11.489.631-7.671 1.999-13.813 2.985-18.068.493-2.128.872-3.799 1.059-4.975.187-1.175.17-1.846-.129-1.989a.299.299 0 00-.128-.032z"></path>
                    <path fill="#fff" d="M610.95 589.01c-.116-.023-.272.021-.385.192-.112.172-.165.501-.192.731-.057.405-.063.932 0 1.538.124 1.198.483 2.809 1 4.73 1.028 3.819 2.761 9.066 4.845 15.459 4.115 12.614 9.701 29.94 14.036 50.376a320.79 320.79 0 015.076 31.764h12.421c-1.317-12.179-3.536-23.781-6.229-34.417a265.255 265.255 0 00-8.999-28.61c-3.204-8.485-6.47-15.853-9.46-21.919-3.04-6.171-5.755-10.953-7.844-14.305-1.06-1.705-1.93-3.001-2.615-3.922a12.569 12.569 0 00-.885-1.077c-.156-.24-.34-.274-.461-.346-.121-.073-.192-.169-.308-.192v-.002z"></path>
                    <path fill="#fff" d="M538.87 609.36c.653.22.426 2.871-.417 7.478-.843 4.606-2.291 11.19-3.98 19.32-1.688 8.129-3.611 17.784-5.07 28.562-1.22 9.006-2.112 18.803-2.247 29.076h-10.173c.28-10.907 1.521-21.211 3.242-30.552a226.029 226.029 0 017.349-28.947c2.623-8.058 5.185-14.37 7.188-18.646 2.004-4.276 3.456-6.51 4.108-6.291z"></path>
                    <path fill="#fff" d="M691.35 611.43c-.759 0-1.472 2.134-2.167 5.916-.695 3.782-1.387 9.228-2.063 15.993-.677 6.764-1.32 14.831-1.823 23.835-.503 9.004-.851 18.951-.654 29.441.006.348.027.684.035 1.032.036 1.81.1 3.616.172 5.399h11.006c-.058-1.864-.129-3.739-.172-5.64-.007-.339-.028-.658-.035-.998-.197-10.227-.186-20.04-.24-28.994-.054-8.953-.163-17.047-.482-23.869-.319-6.822-.823-12.346-1.444-16.165-.622-3.819-1.373-5.95-2.133-5.95z"></path>
                    <path fill="#fff" d="M701.44 619.92c-.675.209-.622 2.498-.16 6.451.461 3.952 1.337 9.578 2.246 16.528a490.933 490.933 0 012.567 24.486c.651 8.147 1.141 17.065 1.509 26.412h10.27c-.423-9.693-1.217-18.981-2.375-27.439-1.295-9.458-3.015-17.9-4.878-24.872-1.863-6.972-3.86-12.476-5.52-16.175-1.66-3.699-2.984-5.601-3.658-5.392l-.001.001z"></path>
                    <path fill="#fff" d="M435.49 696.17c.023-1.741.031-3.484 0-5.256-.024-1.244-.084-2.505-.138-3.762-.334-7.723-1.252-15.144-2.822-21.937-1.57-6.793-3.78-12.961-6.473-18.341-2.459-4.993-5.312-9.306-8.188-12.863-2.876-3.558-5.787-6.354-8.354-8.548-5.805-3.872-9.13-6.527-8.825-7.275.322-.739 4.294.528 11.176 3.485 3.159 1.846 6.769 4.495 10.401 8.078 3.632 3.583 7.267 8.126 10.429 13.555 3.328 5.785 6.11 12.495 8.078 19.862 1.967 7.367 3.134 15.38 3.458 23.624.052 1.342.072 2.688.082 4.011.018 1.813-.01 3.59-.055 5.366h-8.769v.001z"></path>
                    <path fill="#fff" d="M465.34 696.17c.187-1.725.396-3.453.553-5.2.931-10.361 1.226-20.42.959-29.911a236.963 236.963 0 00-2.877-30.686c-1.472-9.224-3.309-17.302-5.016-24.01-1.707-6.708-3.254-12.049-4.204-15.785-.95-3.737-1.309-5.876-.701-6.16.608-.284 2.12 1.315 4.205 4.647 2.084 3.333 4.758 8.412 7.487 15.048 2.728 6.637 5.485 14.849 7.745 24.379 2.259 9.53 3.994 20.372 4.684 32.087.585 9.987.455 20.589-.517 31.46-.124 1.39-.257 2.757-.405 4.131H465.34z"></path>
                    <path fill="#fff" d="M489.49 696.17c2.364-7.293 4.807-14.239 7.054-20.747 2.421-7.013 4.609-13.555 6.39-19.558 1.039-3.507 1.947-6.82 2.683-9.903a117.139 117.139 0 001.716-8.548c.413-2.581.681-4.926.857-6.971.176-2.046.251-3.785.304-5.229.054-1.443.106-2.589.194-3.375.088-.785.227-1.217.47-1.272.244-.055.586.276.969.996s.816 1.841 1.217 3.319c.401 1.478.753 3.317.996 5.505.242 2.189.349 4.708.276 7.497a85.275 85.275 0 01-.747 9.239c-.446 3.319-1.091 6.872-1.908 10.567-1.394 6.318-3.26 13.15-5.45 20.332-1.776 5.825-3.785 11.915-5.782 18.147h-9.239v.001z"></path>
                    <path fill="#fff" d="M599.09 696.17c-.051-1.305-.12-2.595-.166-3.917-.005-.131.004-.268 0-.398-.374-11.156-.552-21.801-.763-31.536-.212-9.735-.479-18.558-.864-25.959-.384-7.401-.88-13.384-1.493-17.527-.614-4.144-1.326-6.44-2.058-6.44-.733 0-1.434 2.282-2.092 6.406-.657 4.125-1.281 10.081-1.859 17.461a585.121 585.121 0 00-1.427 25.992c-.325 9.8-.444 20.6-.066 31.967.004.134-.004.266 0 .399.04 1.197.114 2.366.166 3.552h10.623-.001z"></path>
                    <path fill="#fff" d="M571.29 696.17c-.224-5.585-.7-10.942-1.435-15.85-.889-5.945-2.141-11.237-3.53-15.554-1.388-4.317-2.893-7.666-4.144-9.884-1.252-2.217-2.226-3.308-2.687-3.119-.462.188-.37 1.64.045 4.076s1.124 5.862 1.822 10.134a194.144 194.144 0 011.844 15.121c.387 4.657.632 9.746.798 15.076h7.287z"></path>
                    <path fill="#fff" d="M648.8 605.84c-.274-.004-.719.34-1.3 1.051-.665.813-1.509 2.106-2.435 3.845-.925 1.74-1.924 3.929-2.877 6.584a65.206 65.206 0 00-2.545 9.295c-.636 3.223-1.091 6.772-1.327 10.595a98.442 98.442 0 00.027 12.199c.4 6.316 1.322 13.03 2.767 19.973 1.444 6.943 3.406 14.108 5.643 21.356.456 1.478.918 2.923 1.383 4.371.182.57.37 1.122.553 1.687h9.24c-.466-1.453-.921-2.87-1.384-4.343-.447-1.432-.882-2.865-1.327-4.315-2.185-7.116-4.155-14.038-5.727-20.637-1.571-6.599-2.733-12.875-3.43-18.783-.473-3.989-.754-7.81-.83-11.369a95.37 95.37 0 01.305-9.904c.543-6.612 1.723-11.906 2.572-15.574.425-1.834.752-3.274.913-4.287.162-1.014.147-1.592-.111-1.716a.266.266 0 00-.11-.027v-.001z"></path>
                    <path fill="#fff" d="M604.05 606.47c-.1-.02-.235.018-.331.166-.097.147-.143.432-.166.63-.05.349-.054.803 0 1.325.107 1.033.416 2.421.862 4.078.886 3.291 2.38 7.815 4.176 13.325 3.547 10.873 8.362 25.808 12.099 43.423a276.584 276.584 0 014.376 27.38h10.707c-1.136-10.498-3.049-20.499-5.37-29.667a228.808 228.808 0 00-7.757-24.662c-2.761-7.315-5.577-13.665-8.154-18.894-2.621-5.32-4.961-9.442-6.762-12.331-.913-1.47-1.663-2.587-2.254-3.381a10.646 10.646 0 00-.762-.929c-.134-.206-.294-.235-.398-.298-.104-.062-.165-.146-.265-.166l-.001.001z"></path>
                    <path fill="#fff" d="M542.65 624.02c.563.189.367 2.475-.36 6.446-.726 3.97-1.974 9.645-3.43 16.653-1.456 7.007-3.113 15.33-4.371 24.62-1.051 7.763-1.819 16.208-1.936 25.063h-8.769c.241-9.402 1.31-18.283 2.794-26.335a194.675 194.675 0 016.335-24.952c2.261-6.946 4.469-12.387 6.196-16.072 1.727-3.686 2.978-5.612 3.541-5.422v-.001z"></path>
                    <path fill="#fff" d="M673.35 625.8c-.655 0-1.269 1.839-1.868 5.099-.599 3.26-1.195 7.955-1.778 13.786-.584 5.831-1.138 12.784-1.572 20.545-.433 7.761-.733 16.335-.563 25.377.005.301.023.59.03.89.031 1.56.086 3.117.148 4.654h9.487c-.05-1.607-.111-3.223-.149-4.862-.006-.292-.024-.567-.029-.86-.171-8.815-.161-17.274-.208-24.992-.046-7.717-.14-14.694-.415-20.575-.275-5.88-.709-10.642-1.245-13.934-.536-3.291-1.183-5.128-1.838-5.128z"></path>
                    <path fill="#fff" d="M682.05 633.12c-.582.18-.536 2.153-.138 5.56.398 3.408 1.152 8.257 1.936 14.246a422.435 422.435 0 012.213 21.107c.561 7.023.984 14.71 1.3 22.767h8.852c-.364-8.355-1.049-16.361-2.047-23.652-1.116-8.152-2.599-15.429-4.204-21.439-1.606-6.009-3.328-10.754-4.758-13.942-1.431-3.188-2.572-4.827-3.154-4.647z"></path>
                    <path fill="#fff" d="M548.7 696.17c.187-1.725.396-3.453.553-5.2.931-10.361 1.226-20.42.959-29.911a236.963 236.963 0 00-2.877-30.686c-1.472-9.224-3.309-17.302-5.016-24.01-1.707-6.708-3.254-12.049-4.204-15.785-.95-3.737-1.309-5.876-.701-6.16.608-.284 2.12 1.315 4.205 4.647 2.084 3.333 4.758 8.412 7.487 15.048 2.728 6.637 5.485 14.849 7.745 24.379 2.259 9.53 3.994 20.372 4.684 32.087.585 9.987.455 20.589-.517 31.46-.124 1.39-.257 2.757-.405 4.131H548.7z"></path>
                    <path fill="#fff" d="M584.16 605.84c-.274-.004-.719.34-1.3 1.051-.665.813-1.509 2.106-2.435 3.845-.925 1.74-1.924 3.929-2.877 6.584a65.206 65.206 0 00-2.545 9.295c-.636 3.223-1.091 6.772-1.327 10.595a98.442 98.442 0 00.027 12.199c.4 6.316 1.322 13.03 2.767 19.973 1.444 6.943 3.406 14.108 5.643 21.356.456 1.478.918 2.923 1.383 4.371.182.57.37 1.122.553 1.687h9.24c-.466-1.453-.921-2.87-1.384-4.343-.447-1.432-.882-2.865-1.327-4.315-2.185-7.116-4.155-14.038-5.727-20.637-1.571-6.599-2.733-12.875-3.43-18.783-.473-3.989-.754-7.81-.83-11.369a95.37 95.37 0 01.305-9.904c.543-6.612 1.723-11.906 2.572-15.574.425-1.834.752-3.274.913-4.287.162-1.014.147-1.592-.111-1.716a.266.266 0 00-.11-.027v-.001z"></path>
                    <path fill="#fff" d="M672.84 611.47c.1-.02.235.018.331.166.097.147.143.432.166.63.05.349.054.803 0 1.325-.107 1.033-.416 2.421-.862 4.078-.886 3.291-2.38 7.815-4.176 13.325-3.547 10.873-8.362 25.808-12.099 43.423a276.584 276.584 0 00-4.376 27.38h-10.707c1.136-10.498 3.049-20.499 5.37-29.667a228.808 228.808 0 017.757-24.662c2.761-7.315 5.577-13.665 8.154-18.894 2.621-5.32 4.961-9.442 6.762-12.331.913-1.47 1.663-2.587 2.254-3.381.302-.411.555-.704.762-.929.134-.206.294-.235.398-.298.104-.062.165-.146.265-.166l.001.001z"></path>
                    <path fill="#fff" d="M718.29 624.02c.563.189.367 2.475-.36 6.446-.726 3.97-1.974 9.645-3.43 16.653-1.456 7.007-3.113 15.33-4.371 24.62-1.051 7.763-1.819 16.208-1.936 25.063h-8.769c.241-9.402 1.31-18.283 2.794-26.335a194.675 194.675 0 016.335-24.952c2.261-6.946 4.469-12.387 6.196-16.072 1.727-3.686 2.978-5.612 3.541-5.422v-.001z"></path>
                    <path fill="#fff" d="M629.71 622.8c-.655 0-1.269 1.839-1.868 5.099-.599 3.26-1.195 7.955-1.778 13.786-.584 5.831-1.138 12.784-1.572 20.545-.433 7.761-.733 16.335-.563 25.377.005.301.023.59.03.89.031 1.56.086 3.117.148 4.654h9.487c-.05-1.607-.111-3.223-.149-4.862-.006-.292-.024-.567-.029-.86-.171-8.815-.161-17.274-.208-24.992-.046-7.717-.14-14.694-.415-20.575-.275-5.88-.709-10.642-1.245-13.934-.536-3.291-1.183-5.128-1.838-5.128z"></path>
                    <path fill="#fff" d="M564.41 629.12c-.582.18-.536 2.153-.138 5.56.398 3.408 1.152 8.257 1.936 14.246a422.435 422.435 0 012.213 21.107c.561 7.023.984 14.71 1.3 22.767h8.852c-.364-8.355-1.049-16.361-2.047-23.652-1.116-8.152-2.599-15.429-4.204-21.439-1.606-6.009-3.328-10.754-4.758-13.942-1.431-3.188-2.572-4.827-3.154-4.647z"></path>
                    <g transform="translate(287 5)">
                        <path fill="#fff" d="M-132.64 678.23c4.179.83 11.009 7.574 11.025-.985 24.794-71.931 35.38-149.21 26.991-225.03-3.578-50.442 3.749-103.75 33.367-146.03C-49.759 288.928-36.039 273.3-22 258.09c-32.514 32.457-61.916 70.932-71.413 116.82-9.082 37.945-6.04 77.18-4.25 115.73.434 63.911-12.225 127.96-34.976 187.59h-.001z"></path>
                        <path fill="#fff" d="M-16.838 319.57c-31.517 26.594-60.853 58.992-73.417 100.1-4.176 12.337-6.962 24.986-8.906 37.796a76.712 76.712 0 003.291 1.721c4.915-36.192 16.933-71.477 40.163-99.355 11.679-14.697 25.15-27.688 38.869-40.266v.004z"></path>
                        <path fill="#fff" d="M125.27 233.06H139.76999999999998V296.06H125.27z" transform="rotate(36.384)"></path>
                        <path fill="#fff" d="M198.33 258.68H210.393V311.093H198.33z" transform="rotate(43.174)"></path>
                        <path fill="#fff" fillRule="nonzero" d="M-174.65 506.17c-.001.018.015.042.014.061-11.533 5.958-21.839 12.771-23.386 16.612 3.909 1.736 15.94.485 28.396-2.183 10.117 19.965 32.871 50.712 43.486 53.409 4.667.944 9.347 1.906 13.762 3.742l.309.088.235.042c.805-1.698-1.555-13.506-.85-16.131-2.114-12.861-50.247-55.602-61.966-55.64z"></path>
                        <path fill="#fff" fillRule="nonzero" d="M-85.326 531.78c2.694-1.706 5.672-2.871 8.632-4.019 8.78-3.914 25.899-42.142 24.213-50.109-7.698 1.351-34.508 34.882-34.443 43.575.761 1.645.54 9.673 1.262 10.698l.15-.053.186-.092z"></path>
                        <path fill="#fff" fillRule="nonzero" d="M-121.97 559.44a26.453 26.453 0 00-5.156 1.844c8.37 9.595 16.28 19.826 22.688 30.812 2.259-.904 4.287-2.064 6.031-3.469-6.668-10.548-14.751-20.266-23.562-29.188l-.001.001z"></path>
                        <path fill="#fff" fillRule="nonzero" d="M-79.892 517.44c1.494.366 2.903.878 4.209 1.505-6.832 7.832-13.289 16.183-18.519 25.151-1.844-.737-3.5-1.685-4.923-2.831 5.443-8.61 12.041-16.543 19.233-23.825z"></path>
                    </g>
                    <g transform="rotate(-16.358 545.822 -430.956) scale(.9145)">
                        <path fill="#fff" d="M-57.875 227.53c-15.59 20.378-28.178 41.899-33.875 66.281-10.18 37.676-6.756 76.632-4.75 114.91.486 63.458-13.718 127.05-39.219 186.25 4.685.824 12.326 7.529 12.344-.969 27.791-71.421 39.685-148.16 30.281-223.44-3.941-49.211 3.921-101.17 35.688-142.78-.337-.323-.154.103-.469-.25v-.002z"></path>
                        <path fill="#fff" d="M-5.915 238.84c-35.328 26.406-68.209 58.574-82.293 99.394-4.681 12.25-7.804 24.809-9.983 37.528a90.923 90.923 0 003.69 1.709c5.508-35.936 18.98-70.971 45.018-98.651 13.091-14.593 28.19-27.492 43.568-39.981v.001z"></path>
                        <path fill="#fff" fillRule="nonzero" d="M-37.446 285.57c-1.732 2.423-4.147 4.633-8.63 7.519-8.192 2.189-20.656 2.827-22.142 11.616-.111.096-.168.165-.24.239a109.538 109.538 0 00-5.601 4.032 6.472 6.472 0 001.155 1.853c1.644-1.377 3.353-2.696 5.078-3.989 10.494 2.504 16.427-6.697 22.622-12.074 4.871-2.372 8.052-3.31 11.049-3.53-2.281-.042-5.294.347-8.565 1.046 2.273-2.407 4.133-4.759 5.274-6.712z"></path>
                        <path fill="#fff" fillRule="nonzero" d="M-57.258 364.49c-.05.271-.108.515-.159.778-14.411 7.697-23.432 29.231-30.137 48.388-1.406 1.267-1.861 6.358-1.652 9.472a166.065 166.065 0 00-4.438 6.332 10.397 10.397 0 002.32 2.642c1.519-2.49 3.104-4.908 4.727-7.32 1.736-.158 3.017-1.903 6.046-4.244 11.827-16.687 25-37.335 23.35-55.238l.302-.314c-.108.055-.213.115-.321.172-.021-.22-.012-.45-.038-.668zm-.245 1.124c-1.797 9.056-4.445 13.545-14.236 27.78 5.929-16.492 7.982-21.226 14.236-27.78z"></path>
                        <path fill="#fff" fillRule="nonzero" d="M-52.095 253.51c-1.5 2.793-3.742 5.445-8.059 9.077-8.284 3.359-21.235 5.611-21.661 15.135-.104.116-.154.196-.22.285a114.352 114.352 0 00-5.339 4.99 6.941 6.941 0 001.446 1.822c1.542-1.671 3.159-3.287 4.797-4.878 11.293 1.334 16.317-9.188 22.103-15.682 4.788-3.135 7.995-4.534 11.1-5.146-2.39.244-5.491 1.037-8.821 2.193 2.068-2.844 3.711-5.578 4.654-7.796z"></path>
                        <path fill="#fff" fillRule="nonzero" d="M-86.128 220.6c1.427 2.831 2.313 6.188 2.81 11.808-2.001 8.713-7.588 20.612-.032 26.425.036.152.073.239.107.344.27 2.419.601 4.837 1.024 7.235.75.085 1.542.041 2.322-.138-.484-2.221-.88-4.474-1.243-6.728 7.572-8.484 1.837-18.636-.161-27.101.179-5.721.873-9.149 2.154-12.043-1.172 2.097-2.302 5.092-3.265 8.483-1.143-3.326-2.44-6.24-3.716-8.285z"></path>
                        <path fill="#fff" fillRule="nonzero" d="M-109.82 287.99c2.318 2.804 4.165 6.334 6.155 12.495-.018 10.258-3.234 24.995 6.702 29.572.079.161.142.249.208.357a131.344 131.344 0 002.99 7.834 7.955 7.955 0 002.562-.746c-1.107-2.362-2.124-4.781-3.106-7.211 6.309-11.422-2.697-21.318-7.091-30.279-1.258-6.446-1.355-10.458-.66-14.023-.777 2.645-1.277 6.284-1.491 10.323-2.126-3.429-4.32-6.358-6.269-8.321v-.001z"></path>
                        <path fill="#fff" fillRule="nonzero" d="M-42.587 313.71c-2.216 1.966-5.006 3.532-9.874 5.22-8.107-.015-19.753-2.742-23.37 5.684-.127.066-.197.12-.282.176a99.286 99.286 0 00-6.192 2.536c.076.73.275 1.472.59 2.173 1.867-.939 3.779-1.802 5.699-2.634 9.026 5.35 16.847-2.288 23.929-6.014 5.094-1.067 8.265-1.15 11.082-.56-2.091-.659-4.966-1.083-8.158-1.264 2.709-1.804 5.025-3.664 6.576-5.317z"></path>
                        <path fill="#fff" fillRule="nonzero" d="M-51.74 233.16a480.32 480.32 0 00-15.354 7.317c.125.131.271.259.405.386a829.263 829.263 0 0114.949-7.703z"></path>
                        <g transform="translate(-3.077 -83.287)">
                            <path fill="#fff" d="M-2.838 322.13c-35.328 26.406-68.209 58.574-82.293 99.394-4.681 12.25-7.803 24.809-9.983 37.528a91.557 91.557 0 003.69 1.709c5.508-35.936 18.98-70.971 45.018-98.651 13.091-14.593 28.19-27.492 43.568-39.981v.001z"></path>
                        </g>
                        <path fill="#fff" fillRule="nonzero" d="M-120.77 343.53c.009.257.03.49.04.739 14.005 8.646 20.014 29.586 23.961 48.077 1.281 1.323.924 6.099.189 8.97 1.264 2.084 2.501 4.19 3.659 6.343a11.546 11.546 0 01-2.895 2.213c-1.199-2.47-2.48-4.881-3.803-7.291-1.813-.326-2.884-2.08-5.708-4.569-9.784-16.729-20.34-37.276-15.637-53.735l-.268-.323c.106.062.206.129.312.193.059-.202.087-.416.15-.617zm.074 1.069c.411 8.6 2.477 13.044 10.507 27.283-3.564-15.935-4.959-20.546-10.507-27.283z"></path>
                    </g>
                </g>
            </g>
        </g>
    </g>
</svg>