<svg xmlns="http://www.w3.org/2000/svg" fillRule="evenodd" clipRule="evenodd" viewBox="0 0 280 300">
    <g transform="translate(183.505 209.155)">
        <g transform="translate(-96.495 -90.845)">
            <clipPath id="_clip1">
                <path d="M0 0H192.99V181.69H0z"></path>
            </clipPath>
            <g clipPath="url(#_clip1)">
                <g fill="#fff" stroke="#EEE" strokeWidth="5" transform="translate(-4.016 -12.225)">
                    <path d="M109.65 174.55c1.22 4.91-10.056-6.97-7.58-2.02 3.24 6.48 11.89 15.3 17.68 18.19 4.56 2.28 11.32-1.63 14.14-3.03 4.11-2.06 10.55-3.62 15.15-7.07 4.4-3.3 11.73-4.66 15.16-8.09 3.78-3.78 8.05-4.01 11.11-7.07 4.75-4.75 9.45-5.47 11.11-12.12 1.15-4.62 3.87-2.35 5.05-7.07 1.3-5.2 2.02-8.71 2.02-14.14 0-4.59 1.01-8.59 1.01-14.14 0-5.27.17-10.43-1.01-15.16-1.32-5.276-2.02-9.45-2.02-15.148V72.53c0-5.507 1.01-9.913 1.01-15.153 0-6.1.91-8.287-2.02-14.142-2.73-5.466-4.16-5.051-11.11-5.051-4.19 0-72.48 46.129-75.76 50.508-2.63 3.507 4.79 80.808 6.06 85.858z"></path>
                    <path d="M116.92 190.21c-5.2 1.42-16.78-2.9-19.215-5.55-3.835-4.18-9.354-.23-13.573-2.53-4.595-2.5-8.901-4.02-13.573-6.56-4.212-2.3-7.992-3.7-12.985-5.06-6.48-1.76-6.572-2.17-13.913-4.54-6.886-2.22-9.512-3.19-14.501-4.55-4.389-1.19-6.953-4.54-9.275-7.07-2.786-3.03-6.873-4.25-10.202-6.06-2.199-1.2.587-19.66.587-22.22 0-5.25.144-10.49-.927-15.15-1.099-4.79-.928-10.08-.928-15.157 0-4.42-1.855-6.898-1.855-13.132 0-3.921.333-17.354 3.71-19.193 4.733-2.577 93.99 18.249 97.45 19.193 2.73.742 4.06 7.692 7.01 10.102 3.29 2.689-.42 13.087.51 22.227 1.5 6.49 1.69 11.44 1.69 18.18 0 6.83-.92 12.64-.92 19.19 0 7.31.39 12.84 1.85 19.19 1.33 5.79 3.05 17.6-.94 18.69z"></path>
                    <path d="M179.35 28.269c-2.65-2.605-11.01-4.23-17.18-5.805-5.5-1.407-10.05-2.888-15.15-4.514-4.28-1.367-8.73-2.58-14.14-2.58-5.5 0-10.35-.645-16.16-.645h-15.15c-5.247 0-8.556 2.16-12.126 3.87-4.705 2.253-8.673 4.058-14.142 5.804-6.22 1.986-9.529 5.944-15.153 7.74-5.18 1.653-10.211 3.922-14.142 5.804-3.197 1.531-7.269 3.159-10.101 4.515-4.586 2.196-8.567 3.535-12.122 5.804-3.196 2.041-6.905 3.119-10.102 5.16-3.298 2.106-4.612 5.329-6.061 9.029-1.443 3.686-2.339 6.67 3.031 8.385 4.071 1.3 11.885 1.413 15.152 1.935 4.709.751 9.23 1.656 14.142 3.224 5.334 1.703 10.093 2.9 15.153 4.515 6.745 2.154 13.12 4.641 20.203 6.45 7.244 1.85 15.557.451 22.223 2.579 5.045 1.611 6.285 6.45 12.125 6.45 6.52 0 7.86-1.544 13.13-3.225 3.19-1.019 8.98-5.733 11.11-7.094 3.47-2.215 7.41-1.071 10.1-4.515 2.59-3.301 6.38-4.665 10.1-6.449 4.81-2.301 10-4.464 14.15-6.45 3.09-1.479 6.1-5.841 9.09-8.384 3.52-2.998 5.18-5.247 8.08-7.095 3.52-2.245 5.11-3.297 7.07-5.804 2.57-3.282.87-6.537-3.03-9.03-4.89-3.122-6.1-5.417-10.1-9.674z"></path>
                </g>
            </g>
        </g>
    </g>
</svg>