<svg xmlns="http://www.w3.org/2000/svg" fillRule="evenodd" strokeLinejoin="round" strokeMiterlimit="2" clipRule="evenodd" viewBox="0 0 280 300">
    <g transform="matrix(4.61536 0 0 2.71324 140 233.526)">
        <g transform="translate(-30.334 -24.5)">
            <clipPath id="_clip1">
                <path d="M0 0H60.667V49H0z"></path>
            </clipPath>
            <g clipPath="url(#_clip1)">
                <g transform="matrix(1.25 0 0 -1.25 0 49)">
                    <g>
                        <g>
                            <g>
                                <g>
                                    <g>
                                        <g transform="translate(0 -.8)">
                                            <g>
                                                <g>
                                                    <g>
                                                        <path fill="#fff" d="M34.492 8.68c1.895.613 3.735.922 5.524.922 2.851 0 5.691-.364 8.519-1.082l-1.84-2.399-2.402-1.601c-.32-.215-1.027-.321-2.121-.321a68.186 68.186 0 01-2.156.082h-4.801c-.481 0-1.043-.136-1.68-.402a477.13 477.13 0 01-2.32-.957c-.774-.348-1.988-.801-3.641-1.363L25.332.801c-1.41 0-4.344.359-8.797 1.078-2.64.426-4.121.562-4.441.402-.535-.269-.828-.402-.879-.402-.403 0-1.188-.078-2.36-.238a12.033 12.033 0 00-2.96-.039c-.934.105-1.774.503-2.52 1.199-.961.906-1.988 1.574-3.082 2 0 1.254-.094 2.144-.277 2.679-.137.348.703 1.215 2.519 2.598 1.703 1.281 2.824 2.016 3.36 2.203.238.078.574-.203 1-.84.453-.695.917-1.043 1.398-1.043.293 0 1.828-.265 4.602-.796 2.8-.536 4.812-.801 6.039-.801.855 0 2.867-.375 6.039-1.121 2.746-.614 4.562-.774 5.441-.481.801.266 2.16.762 4.078 1.481z"></path>
                                                    </g>
                                                </g>
                                            </g>
                                        </g>
                                    </g>
                                </g>
                            </g>
                        </g>
                        <g>
                            <g>
                                <g>
                                    <path fill="#fff" d="M35.414 19.88a8.635 8.635 0 001.918-.68c1.066-.535 1.961-.894 2.684-1.078l-.442-1.48c-.187-1.149.051-2.16.719-3.043a22.02 22.02 0 002.641-4.52L44.812 7.2c-1.597-1.066-3.464-1.691-5.597-1.879-1.817.051-3.149.09-4 .118-1.492.027-3.094-.278-4.801-.918-2.055-.883-3.398-1.442-4.039-1.68-.883-.293-2.293-.441-4.242-.441-3.012 0-6.211.441-9.598 1.32H7.492c-.773 0-1.945.668-3.519 2l-2.078 2c1.414 1.148 2.414 1.988 3 2.519.96.907 1.558 1.762 1.8 2.563.133.426.266 1.211.399 2.359.133.824.347 1.547.64 2.16.266.532.664 1.106 1.2 1.719.535.641.933 1.227 1.199 1.758.133.27.281 1.281.441 3.043.133 1.437.614 2.465 1.442 3.078 1.41 1.066 3.277 2.227 5.597 3.481l3.321-2.961c2.32-2.266 3.707-4.118 4.16-5.559.187-.641.468-2.055.84-4.242.242-1.332.668-2.41 1.281-3.238 1.066-1.415 2.039-2.215 2.918-2.399.32.266.64.637.961 1.117.695.989 1.094 2.043 1.199 3.16a4.736 4.736 0 001.281 2.84c.399.403.774.696 1.121.883l.719-.121z"></path>
                                </g>
                            </g>
                        </g>
                        <path fill="#DDD" d="M20.934 27.439c2.32-2.266 3.707-4.118 4.16-5.559.398-1.332.718-2.918.961-4.758-1.735-2.668-4.106-5.711-7.121-9.121-.266.078-.52.227-.762.438-.477.453-.664 1.015-.559 1.683.293 1.68.028 4.438-.801 8.278-.48 2.269-.89 3.789-1.238 4.562-.508 1.199-1.254 1.984-2.242 2.359-.824.321-1.625.375-2.398.161a3.06 3.06 0 001.082 1.441c1.41 1.066 3.277 2.223 5.597 3.477l3.321-2.961z"></path>
                        <path fill="#EEE" d="M35.492 11.2c.215.321.387.946.524 1.879l.519 3.723.438.879c.375.613.839.961 1.402 1.039.664-.293 1.211-.492 1.641-.598l-.442-1.48c-.187-1.149.051-2.16.719-3.043a22.02 22.02 0 002.641-4.52L44.812 7.2c-1.597-1.066-3.464-1.691-5.597-1.879-1.817.051-3.149.09-4 .118-1.492.027-3.094-.278-4.801-.918-2.055-.883-3.398-1.442-4.039-1.68-.883-.293-2.293-.441-4.242-.441-3.012 0-6.211.441-9.598 1.32H7.492c-.371 0-.851.16-1.437.48.664.266 1.613.907 2.84 1.922 1.144.93 2.187 1.559 3.121 1.879 1.332.426 2.863.879 4.597 1.359 1.094.426 1.696 1.215 1.801 2.36.238 1.812.387 3.121.441 3.918.106 1.387.051 2.308-.16 2.762-.242.453-.402 1.214-.48 2.281l-.082 1.437 4.562 2.403.68.238c.879-1.121 1.453-2.078 1.719-2.879.187-.641.465-2.055.84-4.242.238-1.332.668-2.41 1.281-3.238 1.066-1.415 2.039-2.215 2.918-2.399-1.414-1.949-2.746-3.641-4-5.082l2.961.481c2.133.507 3.64 1.148 4.519 1.921 1.067.934 1.692 1.559 1.879 1.879z"></path>
                        <g>
                            <g>
                                <g>
                                    <g>
                                        <clipPath id="_clip2">
                                            <path d="M1 3.2H33V39.2H1z"></path>
                                        </clipPath>
                                        <g clipPath="url(#_clip2)">
                                            <g transform="translate(0 -.8)">
                                                <g>
                                                    <g>
                                                        <clipPath>
                                                            <path d="M1 4H33V40H1z"></path>
                                                        </clipPath>
                                                    </g>
                                                </g>
                                            </g>
                                        </g>
                                    </g>
                                </g>
                            </g>
                        </g>
                        <g>
                            <g>
                                <g>
                                    <g>
                                        <clipPath id="_clip4">
                                            <path d="M25 5.2H44V25.2H25z"></path>
                                        </clipPath>
                                        <g clipPath="url(#_clip4)">
                                            <g transform="translate(0 -.8)">
                                                <g>
                                                    <g>
                                                        <clipPath>
                                                            <path d="M25 6H44V26H25z"></path>
                                                        </clipPath>
                                                    </g>
                                                </g>
                                            </g>
                                        </g>
                                    </g>
                                </g>
                            </g>
                        </g>
                    </g>
                </g>
            </g>
        </g>
    </g>
</svg>