<svg xmlns="http://www.w3.org/2000/svg" fillRule="evenodd" strokeLinejoin="round" strokeMiterlimit="2" clipRule="evenodd" viewBox="0 0 280 300">
    <g fill="#fff" transform="translate(-471.082 -483.339) scale(2.03438)">
        <path d="M212.81 385.05c0-.753 4.826-2.704 8.83-2.624h.037c3.571.101 4.951-3.355 1.311-3.806-1.87-.232-3.13-.453-3.897-1.105-1.648-1.401-1.08-4.329.638-5.399 5.659-3.524 12.796 2.199 16.811 5.618 3.319 2.827 8.392 2.979 9.371 3.001l.038.002c3.689-.352 7.882-.145 11.491 1.164 5.457 1.978 10.604 1.032 16.077-.285 7.799-1.876 5.925-10.644-2.669-10.306-8.444.332-7.887-9.788-.049-10.515 14.342-1.329 10.355 20.573 30.146 17.867 14.793-2.022 11.415 4.181 20.701 3.136 5.441-.612 11.451-2.856 17.54-8.042 6.657-5.669 18.491-15.157 27.873-9.315 1.841 1.147 2.714 2.887 2.63 4.79-.207 4.683-2.522 5.31-8.035 5.994-5.512.685-3.087 6.198.665 4.668 8.92-3.637 14.063 2.096 22.466 4.273l3.159.819-175.13.065h-.004z"></path>
        <path d="M313.35 367.87s.808 1.988-1.345 3.535c-2.153 1.547-2.956.006-6.37.422-3.415.416-3.668.788-4.604 1.526-.936.737-2.546.451-2.024-1.507.522-1.958 1.597-3.432 4.62-5.224 7.911-3.926 9.723 1.248 9.723 1.248z"></path>
        <path d="M270.48 379.37c-.832 1.47-5.408.333-7.078-.452-1.671-.785-2.355-2.624-1.524-4.094.832-1.47 2.872-2.028 4.543-1.244 1.67.785 4.89 4.32 4.059 5.79z"></path>
        <path d="M263.21 374.84c-.084-.456.31-.9.881-.993.571-.092 1.102.203 1.187.658.085.456-.309.901-.88.993-.571.092-1.103-.203-1.188-.658z"></path>
        <path d="M266.21 366.8c-.281 2.524 2.599 2.688 2.053.023-.168-.821-.116-1.518.836-2.12.713-.451.087-.868-.369-.933-1.069-.15-2.329 1.313-2.52 3.03z"></path>
        <path d="M270.3 363.07c-.076-.407.276-.805.787-.887.51-.083.986.181 1.062.589.076.407-.277.804-.788.887-.51.082-.986-.181-1.061-.589z"></path>
        <path d="M309.3 366.09c1.822.272 1.114 2.076-.722 1.234-.493-.226-.978-.313-1.709.096-.549.307-.613-.097-.499-.352.267-.596 1.712-1.161 2.93-.978z"></path>
        <path d="M362.85 364.13c3.886.529 2.828 4.336-2.111 2.519-1.321-.485-2.62-.692-4.575.085-1.467.583-1.641-.234-1.338-.739.712-1.183 4.763-2.308 8.024-1.865z"></path>
        <path d="M351.5 366.77c.592-.228 1.213-.042 1.388.416.175.458-.163 1.014-.755 1.243-.591.228-1.213.042-1.387-.416-.175-.457.163-1.014.754-1.243z"></path>
        <path d="M290.53 361.6s1.861-.58 3.086 1.512c1.226 2.091-.231 2.702-.127 5.857.103 3.154.419 3.416 1.01 4.33.592.915.205 2.364-1.523 1.73-1.728-.634-2.973-1.734-4.351-4.641-2.915-7.546 1.905-8.788 1.905-8.788z"></path>
        <path d="M289.63 363.45c1.232-1.463 3.134-.309 1.186.991-.523.349-.87.733-.718 1.479.114.56-.421.491-.683.316-.612-.41-.609-1.809.215-2.786z"></path>
        <path d="M248.5 358.75s-1.754.865-1.227 3.228c.527 2.363 2.008 1.801 4.08 4.161 2.071 2.359 2.018 2.767 2.208 3.839.19 1.072 1.459 1.855 2.291.203.831-1.652.993-3.31.021-6.37-3.004-7.486-7.373-5.061-7.373-5.061z"></path>
        <path d="M250.42 359.48c-1.896-.211-2.5 1.939-.192 1.537.62-.108 1.135-.068 1.532.578.297.485.641.065.713-.242.169-.72-.785-1.733-2.053-1.873z"></path>
        <path d="M316.96 378.73c.912 1.42 5.417.026 7.041-.852 1.624-.878 2.205-2.753 1.293-4.173-.913-1.421-2.981-1.863-4.605-.985-1.624.878-4.641 4.589-3.729 6.01z"></path>
        <path d="M323.97 373.8c.059-.46-.359-.881-.935-.941-.575-.06-1.089.264-1.148.724-.06.46.359.881.934.941.575.06 1.09-.265 1.149-.724z"></path>
        <path d="M343.54 359.92s1.53 1.495.17 3.78c-1.36 2.285-2.709 1.198-5.675 2.956-2.966 1.759-3.051 2.202-3.616 3.255s-2.156 1.44-2.454-.564c-.299-2.004.102-3.787 2.164-6.648 5.696-6.787 9.411-2.779 9.411-2.779z"></path>
        <path d="M339.11 359.91c1.78-.485 1.846 1.453-.171 1.422-.542-.008-1.022.107-1.53.777-.381.503-.601.159-.597-.12.008-.654 1.109-1.754 2.298-2.079z"></path>
        <path d="M233.38 363.38s-1.502 1.106-.604 3.223c.898 2.116 2.195 1.338 4.544 3.186 2.349 1.849 2.368 2.239 2.729 3.207.361.968 1.688 1.483 2.188-.202.5-1.684.37-3.26-1.065-5.95-4.099-6.476-7.792-3.464-7.792-3.464z"></path>
        <path d="M237.21 363.89c-1.478-.62-1.77 1.034-.024 1.24.469.055.87.209 1.228.842.268.474.499.204.53-.035.072-.562-.746-1.632-1.734-2.047z"></path>
        <path d="M246.9 373.09s-.814.639-.279 1.81c.534 1.17 1.24.718 2.574 1.719 1.335 1.001 1.353 1.218 1.569 1.754.217.536.962.806 1.21-.142.249-.948.149-1.827-.692-3.311-2.385-3.563-4.382-1.83-4.382-1.83z"></path>
        <path d="M249.03 373.32c-.831-.327-.964.602.008.693.261.024.486.105.695.454.157.261.28.107.293-.027.031-.315-.441-.902-.996-1.12z"></path>
        <path d="M325.56 361.64s.838.678.266 1.881c-.571 1.202-1.298.719-2.699 1.73-1.401 1.012-1.422 1.237-1.655 1.788-.232.552-1.01.816-1.255-.171-.246-.988-.13-1.897.765-3.419 2.527-3.645 4.578-1.809 4.578-1.809z"></path>
        <path d="M323.34 361.84c.868-.323.994.642-.018.718-.272.02-.506.099-.729.456-.166.268-.293.106-.304-.033-.027-.328.471-.926 1.051-1.141z"></path>
    </g>
</svg>