<svg xmlns="http://www.w3.org/2000/svg" fillRule="evenodd" strokeLinejoin="round" strokeMiterlimit="2" clipRule="evenodd" viewBox="0 0 280 300">
    <g transform="translate(140 242.995) scale(2.07977)">
        <g transform="translate(-67.315 -27.409)">
            <clipPath id="_clip1">
                <path d="M0 0H134.63V54.818H0z"></path>
            </clipPath>
            <g clipPath="url(#_clip1)">
                <g transform="matrix(1.25 0 0 -1.25 0 54.818)">
                    <g>
                        <path fill="#fff" d="M98.031 14.695c.242-.239.481-.614.723-1.118.238-.586.437-.988.598-1.199.613-.777 2.613-2.414 6-4.922 2.668-2.508 3.066-4.574 1.199-6.199C105.481.323 89.032-.091 57.192.015 41.087.07 24.099.202 6.231.417 3.22.39 1.274.976.392 2.175c-.985 1.336-.106 2.922 2.64 4.762a82.38 82.38 0 012 1.238c.828.535 1.403 1.055 1.723 1.559.211.32.437.961.68 1.922.211.851.504 1.464.878 1.839.426.426 1.012.547 1.758.36.801-.188 1.387-.145 1.762.121.426.293.652.984.68 2.078.027 1.176.187 1.949.48 2.32.293.348.774.547 1.442.602.718.051 1.199.199 1.437.441.481.449.613 1.039.402 1.758-.375.828-.628 1.426-.761 1.801-1.254 3.172-.758 4.465 1.48 3.879.238-.078.602-.84 1.078-2.278.43-1.308.789-1.855 1.082-1.64.746.48.985 1.172.719 2.078-.48 1.039-.801 1.785-.961 2.242-.316 1.039-.492 1.774-.519 2.199-.024 1.012.429 1.625 1.363 1.84 1.223.32 1.945-.094 2.156-1.242.11-.586.094-1.398-.039-2.438 0-.855.227-1.585.68-2.199.613-.801 1.387-.761 2.32.117.613.536.867 1.282.762 2.243a134.24 134.24 0 00-.563 2.32c-.371 1.387-.625 2.437-.758 3.16-.242 1.227-.281 2.293-.121 3.199.133.852.575 1.559 1.321 2.121.879.637 1.668.493 2.359-.441.695-.961.762-2.625.199-5-.558-2.293-.371-3.906.563-4.84.265.055.492.227.679.52.376.507.493 1.254.36 2.238a91.443 91.443 0 00-.481 2.242c-.132 1.067-.16 1.813-.078 2.238.16.961.731 1.602 1.719 1.922 1.254.371 2.027.121 2.32-.761.215-.586.2-1.321-.039-2.2-.109-.398-.425-1.214-.961-2.441-.375-1.117-.308-1.906.2-2.359 1.226-1.067 2.293-.504 3.199 1.679.453 1.094.84 2.387 1.16 3.883.48.531.988.785 1.519.758.536 0 .95-.266 1.243-.801.187-.348.105-.891-.243-1.637-.343-.722-.437-1.226-.277-1.523.293-.531.692-.625 1.199-.277.399.265.692.652.879 1.16.403.933.375 1.918-.078 2.957-.453.59-.789 1.043-1 1.363-.375.613-.348 1.078.078 1.399.907.695 1.801.281 2.68-1.239.215-.347.348-.976.402-1.883.078-.824.254-1.414.52-1.757.851-1.067 1.547-1.028 2.078.117.266.617.547 1.414.84 2.402.801.692 1.453.758 1.961.199.133-.187.386-.734.761-1.64.293-.824.704-1.172 1.239-1.039.558.105.734.574.519 1.398-.398.723-.679 1.297-.84 1.723-.32.824-.093 1.344.68 1.558.801.239 1.359-.027 1.68-.8.375-.879.789-1.36 1.242-1.438l.039.918a153.025 153.025 0 00-1.52 3.52c-.695 1.679-.308 2.695 1.161 3.039 2.851.668 3.984-1.465 3.398-6.399-.051-.398-.133-1.012-.238-1.84-.055-.718.027-1.332.238-1.839.27-.641.656-.989 1.16-1.04.508-.027.84.321 1 1.04l-.398 1.921c-.188.852.094 1.426.84 1.719.906.348 1.465.149 1.679-.601.188-.532.188-1.118 0-1.758-.187-1.043-.281-1.696-.281-1.961.082-.934.629-1.293 1.641-1.082.988.215 1.281 1.23.883 3.043-.293 1.304-.696 2.414-1.204 3.32-.746 1.41-1.171 2.359-1.277 2.84-.32 1.332.211 2.144 1.598 2.437 1.386.293 2.308-.144 2.761-1.32.239-.558.36-1.453.36-2.68 0-.824.133-1.773.398-2.839.16-.641.442-1.586.84-2.84.27-.961.496-1.586.684-1.879.449-.906 1.066-1.332 1.84-1.281.773.054 1.16.679 1.16 1.882.023.957-.11 1.746-.403 2.36-.027.051-.492.758-1.398 2.117-.586.906-.774 1.656-.563 2.242.321.852.934 1.238 1.84 1.16.856-.082 1.524-.48 2-1.199.535-.801.895-2.043 1.082-3.723.215-2 .426-3.293.641-3.878.613-1.708 1.641-2.879 3.078-3.52 1.602-.719 3.07-.348 4.402 1.121.348.371.614 1.106.801 2.199.184 1.067.438 1.774.758 2.121.535.586 1.109.84 1.719.758.64-.078 1.066-.547 1.281-1.398.16-.614 0-1.215-.481-1.801-.773-.961-1.171-1.469-1.199-1.52a5.9 5.9 0 01-.558-2.199c-.028-.535.023-1.308.16-2.32 1.57-.695 2.824.133 3.758 2.48.425 1.118.761 1.786 1 2 .425.399 1 .211 1.718-.562.723-.774.829-1.934.321-3.481-.266-.878-.719-2.199-1.36-3.957-.265-1.308.067-2.254 1-2.843.375-.239.828-.239 1.36 0 .586.242 1.015.32 1.281.242.535-.188.852-.598.961-1.242.133-.985.211-1.504.238-1.559.453-.879 1.121-1.266 2-1.16 1.012.105 1.692 0 2.039-.32h-.001z"></path>
                    </g>
                </g>
            </g>
        </g>
    </g>
</svg>