<svg xmlns="http://www.w3.org/2000/svg" fillRule="evenodd" strokeLinejoin="round" strokeMiterlimit="2" clipRule="evenodd" viewBox="0 0 280 300">
    <g transform="matrix(.38033 0 0 .23026 139.807 215.982)">
        <path fill="#fff" fillRule="nonzero" d="M125 25H75l150 275c16.563 29.531 272.813 22.031 275 0L125 25zm589.063 288.906l-.157 246.875h47.032l.156-246.875h-47.031zm-675.016.313v246.875l46.875-.156V314.219H39.047zm75.016 25.625v28.281c196.406 19.531 375.781 19.531 571.875.156v-28.125c-196.563 19.532-375.157 19.532-571.875-.312zm0 75.156v28.281c196.093 19.532 375.624 19.375 571.875 0V415c-196.563 19.688-375.157 19.688-571.875 0zm571.875 74.063C488.594 509.531 310 509.844 114.063 490.938v28.437c195.468 18.75 375.156 17.969 571.875-2.031v-28.281zm-646.875 100v171.875l721.875.156.156-172.031H39.063z" transform="translate(-400 -400)"></path>
    </g>
</svg>