<svg xmlns="http://www.w3.org/2000/svg" fillRule="evenodd" strokeLinejoin="round" strokeMiterlimit="2" clipRule="evenodd" viewBox="0 0 280 300">
    <g fill="#fff" fillRule="nonzero">
        <path d="M271 497.8c-2.2-2.4-4-4.6-4-5 0-.4-.9-1.2-2-1.8-1.9-1-2-.9-.9.8.7 1.1.9 2.7.6 3.6-1 2.5-16.5 2.3-21.7-.4-4.7-2.4-5.6-3.6-3.3-4.8 1.4-.8.4-1.6-5.5-4.6-4-2-7.2-3.4-7.2-3.1 0 .2 1.8 1.4 4 2.5s4 2.5 4 3c0 1.4-3.5 2.6-10.2 3.4-5.3.7-6.1.5-9.3-1.9-4.1-3.2-7.9-9-6.9-10.6.4-.8 2.6-.9 6.6-.5 3.9.5 5.8.4 5.4-.3-1.4-2.2 1.9-2.1 9.9.4 4.7 1.4 9.3 2.8 10.3 3.2 1.2.4 1.4.3.7-.5-.5-.6-7.7-4-16-7.5-8.2-3.5-24.9-11.4-37.1-17.5-19.4-9.7-24.9-13.1-45.5-27.6L119.5 412l-28.3-31.7c-15.6-17.5-30.4-34.1-32.8-37-4.3-4.9-5-6.8-14.5-36.5l-10-31.3.6-11c.6-10.5 1.5-14 2.9-11.6.5.8 3.6 16.2 3.6 17.9 0 .2.5 0 1-.3.6-.3 1-5.1 1-10.9 0-5.7.4-12.6 1-15.3.5-2.8 1.6-10.6 2.5-17.4l1.6-12.4 9.1-16.5c5.1-9.1 9.7-16.8 10.2-17.2 3.2-2.1 2.5 2.4-2.8 17.4-3.1 9-5.6 16.9-5.6 17.6 0 2.4 1.7.3 2.4-3 1.2-5.8 14.6-26.9 25.8-40.4 8.3-10 13.4-15.1 21.1-21 24.4-18.8 51.6-41 56.4-46.1 2.8-3 5.7-5.2 6.2-4.8.6.3 1.1 2.5 1.1 4.7 0 5.9-4.9 11.8-21 25.1-7.4 6.2-19.6 16.9-27.1 23.9-12.3 11.5-14.3 14-20.7 24.5l-7.1 11.8-1.5 11.4-1.5 11.5 4.1 4.8c5.8 7 8 6.7 19.3-2.7l9-7.5 11.5-23c10.5-20.9 12.4-24 21.5-35.1 10-12.1 10-12.2 30.5-25.8 11.3-7.6 28.2-17.9 37.5-23l17-9.3 13.7-14.2c11-11.3 14-13.8 15-12.8s-.1 4-5.7 15.3l-7 14-10.5 8.8c-34 28.6-40.6 35-56.6 55.1L177 177.5l-4 12.1c-2.3 6.7-5.6 17.8-7.4 24.7-3.3 12.3-3.3 12.6-2 20.3 1.3 7.5 4 15.3 5.3 15.4.3.1 2.5.5 4.9.9 4 .8 4.5.6 11.5-4.6 8.3-6.2 8.2-6.1 25.9-44.3 11.4-24.6 16.4-33.3 31.1-54.2 8.7-12.3 9.4-13 18.1-18.4 5-3.1 13.7-9 19.3-13.2l10.1-7.5 3.6-14.1c3.3-13.3 3.4-14.6 2.5-21.5-1.6-11.2.2-11.4 8.3-1.1 2.3 2.8 2 1.9-1.5-4.8-4.2-8.3-4.2-8.5-4.6-20.8l-.3-12.4 4.2-6.7c6.5-10.3 8-10.5 8-1.2 0 6.5 2.1 11.4 10.2 24.1 3.3 5.1 6.3 8.1 12.8 12.9 4.7 3.4 12.4 9.7 17.1 14 8.4 7.7 8.7 8.1 13.2 19.1 5.4 13 11.7 38 18.3 72.2 4.3 22.7 10.2 41.6 17.9 58.4 1.4 2.9 2.5 5.8 2.5 6.5 0 3.7 14.3 13.7 22.3 15.7 5.4 1.4 6 1.1 10.2-5l2.7-3.9-5.5-9.3c-3-5.1-10-16.7-15.6-25.7-9.6-15.7-10.1-16.9-12.7-27.9-2.6-11.3-2.6-11.7-1.9-35.1.4-13 .9-24 1.2-24.4 1.3-2.2 2.6 2.3 4.9 17.3 1.3 9 3 17.1 3.8 17.9 12.7 15.1 36 44.9 45.1 57.8.4.7 10.9 2.2 11.4 1.8.3-.3-2.1-8.6-5.3-18.3-4.5-13.7-8-21.8-15.2-35.7l-9.3-18-21.6-18c-11.9-9.9-22.8-18.9-24.1-20-1.8-1.5-3.5-5.6-6.4-15.5-5.7-19.1-4.7-20 7-6.5 5.7 6.5 10.3 10.4 20.9 17.7 14.6 10 25 18.9 48.4 41.7 18.5 18.1 23 25.3 30.2 49.1 2.6 8.5 8.1 24.5 12.2 35.5l7.4 20 6.6 4c3.7 2.2 6.9 4.1 7.2 4.2.3.2 1.6-1.2 2.7-3 1.9-2.8 2.3-5.2 2.9-18.4.7-15.1.7-15.3-3-30.6l-3.6-15.4-10-13.9-10.1-13.9.7-10c.9-13.8 2.4-14.7 6-3.5 3.4 10.5 6.6 15.3 17.4 26.5 13.2 13.5 14.8 15.9 20.6 31.3l4.7 12.2-1.2 23.5-1.1 23.5-5.4 16c-2.9 8.8-5.2 16-5 16 .3 0 5.9-7.3 12.6-16.2 6.7-9 12.9-16.9 13.7-17.6 3.6-2.8 3.4.8-.3 11-4 10.6-26.1 56.5-33.5 69.6-3.3 5.8-3.7 7.1-2.1 6.3 1.1-.6 2.3-1.6 2.6-2.1.3-.6 1.3-1 2.1-1 3.5 0 2.2 3.4-5 13.7-7.1 10.2-8.1 11.2-17.5 17.3-9.9 6.4-10.3 6.8-26.7 27.7-14.3 18.3-18.5 22.8-30.1 33-9.8 8.6-16.3 13.4-24.3 17.8-6 3.3-11.3 6.5-11.7 6.9-.5.5-.2.6.6.1.9-.5 1.9-.1 3 1.3l1.6 2.2 11.3-3.6c6.2-1.9 11.7-3.2 12.2-2.9 2.2 1.3-.9 3.7-12.8 9.8l-12.7 6.5-11.2.7c-12.3.8-13.9.4-12.2-2.7.9-1.7.8-1.9-.8-1.4-1 .3-11.4 3.3-23.1 6.5-20.8 5.8-21.5 6.1-26.8 10.8-10.9 9.5-14.7 12.4-15.6 11.5-.5-.5-1.1-3.1-1.4-5.9-.6-4.9-.5-5.1 3-7.8 2-1.5 3.5-3 3.2-3.2-1-1.1-11.7 3.1-22.2 8.8-7.9 4.2-11.9 5.8-12.6 5.1-.7-.7-.8-4-.3-9.1l.7-8.1 7.6-7 7.5-7.1-5.4 2.1c-3 1.2-8.4 3.5-12.1 5.2l-6.7 3-2.7 7.4c-3.8 10.6-4.3 10.7-10.9 3.8l-5.5-5.9v10.7c0 5.9-.4 11-1 11.3-.5.3-2.8-1.3-5-3.7z" transform="matrix(.52191 0 0 .49076 -17.693 153.701)"></path>
        <path d="M497.3 163.8c-.6-.7-2.3-3.8-3.8-6.8-1.8-3.6-6-8.7-12-14.5-5-4.9-11.3-11.5-13.9-14.7l-4.7-5.6-2.5-14.9c-1.3-8.1-2.9-16.9-3.5-19.5-2.1-9.1 1.1-8.7 6.1.8 3.2 5.9 4.2 6.9 10.6 10.4l7.1 4 6.2 13.7c5 11.2 6.8 16.8 9.7 30.2 3.3 15.3 3.6 20.5.7 16.9zM78.5 155c-1.2-2 1.7-15.5 4.7-21.5 1.7-3.3 6.8-11 11.5-17.2 7.8-10.2 9.3-11.7 19.1-18.1 17.5-11.4 22.5-13.8 37.5-17.5 13-3.3 14-3.7 19.3-8.3 16.1-14.2 18.1-13.3 9.5 4.3l-4.9 10-9.8 6c-5.5 3.3-18.7 10.6-29.4 16.2-18.8 9.7-19.9 10.5-31.7 21.3-6.7 6.2-14.5 14.2-17.4 17.8-5.5 7-7.4 8.6-8.4 7zM540.3 140.7c-2.3-1.8-8.4-7.4-13.7-12.3-9.6-8.8-9.7-9-12.2-17-1.9-6.5-3.8-10-9.4-17.4-3.9-5.1-7-9.7-7-10.1 0-1.7 2.3-2.1 8-1.4l5.8.7 9.2 13.1c10.6 15.1 26.2 44.9 24.4 46.7-.8.8-2.3.1-5.1-2.3z" transform="matrix(.52191 0 0 .49076 -17.693 153.701)"></path>
    </g>
</svg>