<svg xmlns="http://www.w3.org/2000/svg" fillRule="evenodd" strokeLinejoin="round" strokeMiterlimit="2" clipRule="evenodd" viewBox="0 0 280 300">
    <g transform="matrix(.4941 0 0 .4941 140 218.914)">
        <g transform="translate(-283.345 -164.11) translate(-48.625 -73.47)">
            <g>
                <path fill="#fff" fillRule="nonzero" d="M56.625 81.469c17.564 29.034 34.959 56.609 51.062 71.062 10.088 17.378 10.664 32.645 45.531 55.531 9.518 19.506 21.485 36.84 42.75 46.062 4.01 12.883 13.02 26.501 47.344 43.875v22.625l-.344.813h.344v.156c11.298 1.897 23.83-6.269 23.812 5.156 0 35.996 28.214 66.635 64.062 66.938h.281c.168-.001.333.003.5 0 .168.003.333-.001.5 0h.282c35.848-.303 64.062-30.941 64.062-66.938-1.845-9.844 15.024-5.156 23.812-5.156v-.156h.343l-.343-.813v-22.625c34.323-17.374 43.334-30.992 47.344-43.875 21.265-9.222 33.233-26.556 42.75-46.062 34.868-22.886 35.444-38.154 45.53-55.531 16.105-14.454 33.5-42.029 51.063-71.062-82.525 35.069-140.641 64.046-210.971 96.062-25.474 14.785-25.596 21.134-35 30.562l-28.75 8.688-.625-.157-.625.157-28.75-8.688c-9.403-9.429-9.526-15.746-35-30.531-70.29-32-128.41-61.01-210.94-96.081l-.024-.012zM75.438 96c50.59 25.23 65.314 30.179 102.28 49.031 35.284 17.994 98.415 39.382 109.97 59.719l-115.5-30.25c-58.41-20.31-82.7-48.26-96.752-78.5h.002zm513.06 0c-14.052 30.245-38.338 58.192-96.75 78.5l-115.5 30.25c11.55-20.34 74.69-41.73 109.97-59.72 36.97-18.85 51.69-23.8 102.28-49.03zm-468.12 64.094l46 19.281 43.375 41.688c-55.484-14.995-77.075-37.79-89.375-60.969zm423.19 0c-12.3 23.179-33.891 45.974-89.375 60.969l43.375-41.688 46-19.281zm-347.69 30.312l136.09 35.281 136.06-35.281c-26.453 32.298-60.827 68.406-58.094 121.12-13.284-.378-20.287-1.352-23.969.094v17.375c0 29.823-24.177 54-54 54s-54-24.177-54-54v-17.656c-4.783-1.212-12.819.187-23.969.187 2.733-52.719-31.672-88.827-58.125-121.12h.007zm-28.656 24.125c21.391 8.901 41.35 16.806 47.375 15.312l11.875 24.969c-31.216-9.311-50.535-22.709-59.25-40.281zm329.5 0c-8.715 17.572-28.034 30.97-59.25 40.281l11.875-24.969c6.025 1.494 25.984-6.411 47.375-15.312zm-290.06 41.86c7.286 3.37 15.352 6.299 25.312 8.438 0 0 10.055 19 11.344 21.625v.562c-14.501-6.783-25.659-18.577-36.656-30.625zm250.62 0c-11 12.04-22.15 23.84-36.66 30.62v-.562c1.288-2.626 11.344-21.625 11.344-21.625 9.96-2.139 18.026-5.068 25.312-8.438l.004.005z"></path>
            </g>
        </g>
    </g>
</svg>