<svg xmlns="http://www.w3.org/2000/svg" fillRule="evenodd" strokeLinejoin="round" strokeMiterlimit="2" clipRule="evenodd" viewBox="0 0 280 300">
    <g transform="translate(140 264.92) scale(1.27563)">
        <g transform="translate(-109.75 -27.5)">
            <clipPath id="_clip1">
                <path d="M0 0H219.5V55H0z"></path>
            </clipPath>
            <g clipPath="url(#_clip1)">
                <g transform="matrix(1.25 0 0 -1.25 0 55)">
                    <g>
                        <path fill="#EEE" d="M79.801 0a45.29 45.29 0 00-8.563.84c-1.652.293-4.199.812-7.636 1.558-2.321.43-4.95.59-7.883.481-1.465-.051-2.707-.145-3.719-.277l-6.559.238c-4.906.215-8.652.535-11.242.961-2.426.398-5.254 1.586-8.48 3.558-3.891 2.375-6.067 3.653-6.52 3.84-1.199.481-3.187.961-5.961 1.442-2.957.507-5.238 1.027-6.84 1.558-2 .668-3.664 1.563-5 2.68L0 18.398C1.066 19.867 2.066 21.734 3 24c.586 1.414 1.332 3.668 2.238 6.762L6.398 35h5.403c10.265-1.465 15.867-2.199 16.801-2.199h138.8l.243-1.84c.293-1.602.812-3.32 1.558-5.16 1.199-2.934 3.336-7.668 6.403-14.199l-1.403-.801c-.933-.535-2.398-1.067-4.398-1.602V7.398l-1.199-.359a29.261 29.261 0 00-3-.641 41.391 41.391 0 00-4.44-.519c-2.19-.106-5.1-.067-8.76.121-5.36.266-17.23-.801-35.6-3.199-3.84-.508-9.72-.789-17.64-.84A283.545 283.545 0 0088.404 2L88.006.398 86.447.199C84.846.066 82.631 0 79.807 0h-.006z"></path>
                        <path fill="#fff" d="M94.641 26.16C85.383 24.641 77.508 23.852 71 23.801c-11.172-.133-19.414-.028-24.719.32-5.734.399-10.894 1.227-15.48 2.481-2.453.664-5.867 1.226-10.242 1.679-3.547.371-7.399 1.344-11.559 2.918-2.773 1.039-4.254 2.281-4.441 3.723-.184 1.41.882 2.773 3.203 4.078 5.543 3.094 14.691 4.492 27.437 4.199 2.293-.054 13.801.055 34.52.321 22.777.32 37.541.48 44.281.48 9.762 0 19.812-.855 30.16-2.559 9.945-1.629 17.426-3.574 22.442-5.839 1.519-.696 2.332-1.536 2.437-2.524.133-.957-.371-1.906-1.519-2.84-2.66-2.16-6.91-3.238-12.72-3.238-3.602 0-8.613.172-15.039.52-6.961.375-14.082.601-21.36.679-7.015.082-14.937-.597-23.761-2.039h.001z"></path>
                    </g>
                </g>
            </g>
        </g>
    </g>
</svg>