<svg xmlns="http://www.w3.org/2000/svg" fillRule="evenodd" strokeLinejoin="round" strokeMiterlimit="2" clipRule="evenodd" viewBox="0 0 280 300">
    <g transform="matrix(.43486 0 0 .43486 140 248.607)">
        <g transform="translate(-297.638 -420.945)">
            <g fill="#fff" fillRule="nonzero">
                <path d="M439.315 156.124c-94.989-29.896-198.655 28.892-229.668 130.242-31.013 101.351 21.609 209.374 116.582 239.321 64.601 20.297 135.815.41 184.228-51.447-38.658 32.062-89.492 42.52-135.788 27.934-77.351-24.392-120.362-111.875-95.288-193.818 25.074-81.943 109.354-129.327 186.719-104.977 46.895 14.814 83.223 53.472 96.753 102.958-10.387-71.424-58.281-129.661-123.538-150.213z"></path>
                <path d="M302.902 508.604c89.962-42.703 125.958-156.311 79.747-251.696-46.211-95.385-158.265-138.769-248.25-96.115-61.158 29.068-99.829 92.088-100.04 163.03 6.525-49.797 36.673-92.042 80.528-112.843 73.29-34.74 164.327.127 201.689 77.246 37.362 77.119 7.82 169.182-65.451 203.961-44.451 21.042-97.376 17.418-140.956-9.651 56.199 45.287 130.92 55.394 192.733 26.068z"></path>
                <path d="M115.411 230.916c8.191 99.245 101.776 173.032 207.333 163.473 105.558-9.559 185.708-99.08 177.571-198.33-5.604-67.482-50.914-125.913-117.213-151.156 44.287 23.686 73.168 66.807 77.146 115.182 6.628 80.835-58.134 153.7-143.478 161.429-85.344 7.73-161.048-52.414-167.719-133.245-3.993-49.017 18.082-97.255 58.794-128.471-62.212 36.591-98.048 102.932-92.434 171.118z"></path>
            </g>
        </g>
    </g>
</svg>